{"glyphs":{"0":{"ha":991,"x_min":0,"x_max":0,"o":"m 494 942 b 296 897 419 941 353 926 b 133 749 227 863 173 813 b 57 463 82 669 57 574 b 103 233 57 381 73 304 b 193 103 124 185 154 142 b 495 -16 273 24 374 -16 b 694 28 568 -16 635 -1 b 857 177 762 62 816 112 b 913 308 881 214 899 258 b 933 456 926 358 933 408 b 798 823 933 612 888 734 b 494 942 717 903 616 942 m 494 785 b 667 689 568 784 625 752 b 726 465 707 631 726 556 b 667 248 726 380 707 307 b 495 153 625 184 568 153 b 323 248 422 153 366 184 b 264 469 283 307 264 381 b 323 689 264 556 283 630 b 494 785 366 753 422 785 "},"1":{"ha":991,"x_min":0,"x_max":0,"o":"m 321 591 b 370 642 330 624 340 634 l 433 657 l 433 71 b 390 22 433 43 422 31 l 390 0 l 673 0 l 673 22 b 629 71 640 31 629 43 l 629 855 b 673 904 629 883 640 895 l 673 926 l 390 926 l 390 904 b 433 855 422 895 433 882 l 433 815 l 375 800 b 356 798 367 798 361 798 b 321 838 337 798 331 804 l 299 838 l 299 591 "},"2":{"ha":991,"x_min":0,"x_max":0,"o":"m 298 167 b 351 217 314 189 332 205 b 450 264 370 229 403 245 b 524 295 488 279 513 290 l 628 342 b 790 442 696 372 750 406 b 882 655 851 498 882 569 b 786 865 882 743 850 812 b 534 942 723 916 640 942 b 166 812 389 942 266 899 b 133 785 149 798 138 789 b 114 781 127 782 121 781 b 76 793 106 781 93 785 l 60 778 l 240 583 l 255 599 b 244 642 248 620 244 634 b 326 736 244 674 271 706 b 509 785 382 768 444 785 b 675 659 617 785 675 741 b 523 488 675 586 631 537 l 408 435 b 224 336 323 397 262 363 b 75 143 152 283 102 219 b 56 0 62 106 56 58 b 56 -43 56 -6 56 -21 l 78 -43 b 96 -8 82 -25 88 -14 b 143 0 104 -3 120 0 l 864 0 b 913 -43 892 0 905 -11 l 935 -43 l 935 210 l 913 210 b 864 167 905 178 892 167 l 298 167 "},"3":{"ha":991,"x_min":0,"x_max":0,"o":"m 781 486 b 897 675 859 531 897 595 b 864 798 897 721 886 762 b 774 884 842 833 812 862 b 527 942 707 923 625 942 b 146 827 387 942 260 904 b 110 812 131 817 119 812 b 73 823 102 812 90 816 l 56 810 l 212 618 l 229 631 b 220 662 222 643 220 653 b 270 724 220 684 237 705 b 511 785 339 764 419 785 b 712 665 640 785 712 741 b 665 578 712 627 696 598 b 511 543 629 555 578 543 b 425 552 469 543 439 546 b 395 592 410 558 400 572 l 373 592 l 373 365 l 395 365 b 426 402 399 383 410 396 b 516 412 443 408 473 412 b 733 280 659 412 733 367 b 656 170 733 230 707 193 b 509 142 615 151 566 142 b 330 167 449 142 389 150 b 192 232 270 184 224 205 b 155 299 167 252 155 275 b 158 313 155 303 156 308 l 138 322 l 29 72 l 49 62 b 95 87 68 79 83 87 b 176 56 107 87 134 77 b 512 -16 277 8 389 -16 b 802 52 628 -16 725 7 b 935 281 890 104 935 180 b 781 486 935 379 883 447 "},"4":{"ha":991,"x_min":0,"x_max":0,"o":"m 640 71 b 596 22 640 43 629 31 l 596 0 l 879 0 l 879 22 b 836 71 846 31 836 43 l 836 156 l 886 156 b 936 112 914 156 927 144 l 958 112 l 958 351 l 936 351 b 886 309 927 319 914 309 l 836 309 l 836 855 b 879 904 836 882 846 895 l 879 926 l 516 926 l 516 904 b 551 875 539 901 551 890 b 521 825 551 865 541 848 l 61 309 l 61 112 l 82 112 b 100 148 85 131 92 143 b 152 156 109 153 125 156 l 640 156 m 282 309 l 640 715 l 640 309 "},"5":{"ha":991,"x_min":0,"x_max":0,"o":"m 56 96 b 96 112 75 106 87 112 b 148 95 112 112 129 106 b 243 42 192 69 223 52 b 526 -16 322 3 416 -16 b 886 126 695 -16 815 31 b 947 313 927 181 947 243 b 845 534 947 405 913 478 b 541 624 771 594 670 624 b 281 568 443 624 356 606 l 281 768 l 810 768 b 859 725 838 768 849 758 l 881 725 l 881 970 l 859 970 b 810 926 849 937 838 926 l 76 926 l 76 904 b 119 852 108 896 119 882 l 119 656 b 87 615 119 629 109 615 b 78 616 85 615 81 615 l 64 600 l 302 359 l 319 374 b 309 401 313 385 309 395 b 376 453 309 419 332 437 b 520 477 422 469 469 477 b 684 433 589 477 644 463 b 746 313 726 403 746 363 b 682 184 746 258 725 216 b 521 142 643 156 589 142 b 270 215 429 142 346 166 b 215 284 233 238 215 261 b 220 314 215 292 216 302 l 202 326 l 39 110 "},"6":{"ha":991,"x_min":0,"x_max":0,"o":"m 922 884 b 909 873 919 882 915 878 b 886 865 901 867 894 865 b 842 878 876 865 861 869 b 697 928 787 901 739 918 b 557 942 656 937 609 942 b 199 804 410 942 291 896 b 65 454 110 715 65 598 b 100 250 65 382 77 315 b 210 83 124 182 161 126 b 517 -16 283 17 386 -16 b 817 69 638 -16 739 12 b 938 302 897 128 938 205 b 905 438 938 352 927 397 b 812 541 882 481 851 515 b 558 612 741 588 656 612 b 396 585 497 612 443 603 b 258 497 349 567 303 538 b 290 640 262 556 273 604 b 367 733 307 676 332 707 b 559 792 420 772 484 792 b 669 778 595 792 631 787 b 762 741 706 768 737 756 b 805 686 791 722 805 705 b 802 660 805 680 804 671 l 821 650 l 940 872 m 522 457 b 692 406 593 456 650 439 b 747 295 728 378 747 340 b 692 187 747 252 728 216 b 523 136 650 153 593 136 b 353 187 453 136 396 153 b 299 297 317 216 299 252 b 353 406 299 342 317 378 b 522 457 397 440 453 457 "},"7":{"ha":991,"x_min":0,"x_max":0,"o":"m 292 106 b 246 47 275 79 259 59 b 198 22 233 36 218 27 l 198 0 l 530 0 l 530 22 b 492 55 505 31 492 41 b 516 106 492 62 500 80 l 932 793 l 932 970 l 911 970 b 861 926 902 937 889 926 l 129 926 b 79 970 101 926 88 937 l 58 970 l 58 730 l 79 730 b 129 773 88 763 101 773 l 706 773 "},"8":{"ha":991,"x_min":0,"x_max":0,"o":"m 733 495 b 900 693 844 539 900 605 b 860 814 900 739 886 780 b 758 895 833 849 800 876 b 495 942 688 926 600 942 b 167 852 345 942 235 912 b 91 693 116 808 91 755 b 258 495 91 605 146 539 b 51 277 120 459 51 387 b 98 132 51 225 66 177 b 215 33 129 87 168 54 b 496 -16 289 0 382 -16 b 852 85 662 -16 781 18 b 940 277 911 140 940 203 b 733 495 940 387 871 459 m 494 797 b 705 684 627 797 705 755 b 648 604 705 650 686 623 b 495 574 610 584 559 574 b 286 685 367 574 286 616 b 342 766 286 720 304 747 b 494 797 379 787 430 797 m 494 419 b 732 279 646 418 732 368 b 682 186 732 240 715 210 b 495 142 637 157 574 142 b 321 178 422 142 364 154 b 258 280 279 203 258 237 b 309 374 258 320 275 352 b 494 419 355 404 416 419 "},"9":{"ha":991,"x_min":0,"x_max":0,"o":"m 69 42 b 82 52 72 44 76 47 b 105 61 90 58 98 61 b 149 48 115 61 130 57 b 294 -2 205 24 253 7 b 433 -16 336 -12 382 -16 b 792 122 581 -16 700 30 b 926 472 881 211 926 328 b 891 676 926 543 914 611 b 781 843 867 744 831 800 b 473 942 707 909 604 942 b 175 857 353 942 254 913 b 54 623 94 798 54 720 b 86 488 54 574 64 529 b 180 384 109 445 140 410 b 432 314 250 337 334 314 b 594 340 494 314 547 323 b 733 429 641 359 688 388 b 701 286 729 370 718 322 b 624 193 684 250 659 219 b 431 134 570 153 506 134 b 322 148 396 134 360 138 b 229 185 284 158 253 170 b 186 239 200 203 186 221 b 190 266 186 245 187 254 l 171 275 l 51 54 m 468 789 b 637 739 539 789 595 772 b 692 627 673 710 692 673 b 637 519 692 584 673 548 b 468 469 595 486 538 469 b 299 519 398 469 342 486 b 245 629 263 548 245 585 b 299 739 245 674 263 711 b 468 789 342 772 399 789 "}," ":{"ha":347,"x_min":0,"x_max":0,"o":""}," ":{"ha":347,"x_min":0,"x_max":0,"o":""},"!":{"ha":525,"x_min":0,"x_max":0,"o":"m 351 347 b 316 363 333 352 321 357 b 309 397 311 370 309 380 b 311 427 309 406 309 416 l 360 844 b 371 890 363 868 366 884 b 405 904 376 896 387 901 l 405 926 l 120 926 l 120 904 b 153 890 138 901 149 896 b 165 844 158 884 162 868 l 214 427 b 216 397 216 416 216 406 b 174 347 216 365 211 357 l 174 326 l 351 326 m 262 206 b 183 173 231 205 205 195 b 151 96 162 152 151 126 b 184 16 151 65 162 39 b 262 -16 205 -5 232 -16 b 340 16 293 -16 319 -5 b 374 94 363 38 374 64 b 341 174 374 125 363 152 b 262 206 320 195 294 206 "},"\"":{"ha":771,"x_min":0,"x_max":0,"o":"m 273 545 b 241 559 256 549 245 554 b 235 593 237 566 235 576 b 237 616 235 602 235 610 l 281 852 b 292 894 285 875 288 889 b 321 906 295 899 305 903 l 321 926 l 65 926 l 65 906 b 94 894 81 903 91 899 b 105 852 98 889 102 875 l 150 616 b 152 595 151 609 152 602 b 145 559 152 577 150 566 b 113 545 141 554 130 549 l 113 525 l 273 525 l 273 545 m 659 545 b 626 559 642 549 631 554 b 620 593 622 566 620 576 b 622 616 620 602 621 610 l 667 852 b 677 894 670 875 673 889 b 707 906 681 899 691 903 l 707 926 l 450 926 l 450 906 b 479 894 466 903 476 899 b 490 852 484 889 487 875 l 535 616 b 537 595 536 610 537 602 b 530 559 537 577 535 566 b 498 545 526 554 515 549 l 498 525 l 659 525 l 659 545 "},"#":{"ha":1065,"x_min":0,"x_max":0,"o":"m 863 851 b 917 900 869 878 882 892 l 921 922 l 690 922 l 686 900 b 721 863 713 892 721 884 b 720 851 721 858 721 854 l 694 715 l 471 715 l 498 851 b 551 900 503 878 517 892 l 555 922 l 325 922 l 321 900 b 355 863 348 892 355 884 b 354 851 355 858 355 854 l 328 715 l 215 715 b 174 760 187 715 177 726 l 151 760 l 106 528 l 130 528 b 187 571 145 561 159 571 l 300 571 l 257 350 l 144 350 b 103 393 116 350 106 360 l 80 393 l 35 162 l 58 162 b 116 206 74 195 89 206 l 229 206 l 203 70 b 149 20 197 42 184 31 l 145 -3 l 376 -3 l 380 20 b 345 59 352 29 345 37 b 346 70 345 64 345 68 l 372 206 l 595 206 l 568 70 b 515 20 563 42 550 31 l 511 -3 l 741 -3 l 746 20 b 711 59 718 29 711 37 b 712 70 711 64 711 68 l 739 206 l 851 206 b 892 162 879 206 889 195 l 915 162 l 958 393 l 937 393 b 879 350 922 361 907 350 l 766 350 l 809 571 l 922 571 b 963 528 949 571 960 560 l 986 528 l 1029 760 l 1008 760 b 950 715 994 727 978 715 l 838 715 m 400 350 l 444 571 l 666 571 l 623 350 "},"$":{"ha":991,"x_min":0,"x_max":0,"o":"m 557 780 b 724 730 610 776 666 759 b 811 652 782 701 811 675 b 810 641 811 648 811 644 l 829 630 l 941 848 l 921 858 b 888 842 908 848 897 842 b 860 850 881 842 871 845 b 687 914 789 880 732 901 b 557 939 643 927 600 935 l 557 975 b 601 1024 557 1002 568 1015 l 601 1046 l 412 1046 l 412 1024 b 455 975 444 1015 455 1002 l 455 942 b 184 857 340 939 250 910 b 85 647 118 804 85 734 b 117 521 85 600 96 558 b 214 429 140 481 172 450 b 307 397 243 415 273 404 b 455 376 340 389 389 382 l 455 145 b 326 174 414 149 371 158 b 214 227 280 189 243 207 b 171 294 185 247 171 269 l 171 303 l 151 312 l 51 85 l 71 75 b 98 90 83 85 92 90 b 122 83 104 90 112 87 b 455 -14 235 26 346 -6 l 455 -58 b 412 -108 455 -86 444 -99 l 412 -130 l 600 -130 l 600 -108 b 557 -58 568 -99 557 -86 l 557 -14 b 729 20 616 -12 673 0 b 939 289 865 69 939 164 b 912 404 939 330 930 368 b 840 490 895 439 870 469 b 581 566 781 530 694 555 l 557 568 m 455 579 b 335 597 402 583 362 589 b 272 667 296 608 272 635 b 362 767 272 710 307 749 b 455 783 387 775 418 781 l 455 579 m 557 365 b 694 342 623 359 669 351 b 743 275 723 332 743 304 b 666 172 743 232 718 197 b 557 144 638 159 602 149 l 557 365 "},"%":{"ha":1227,"x_min":0,"x_max":0,"o":"m 282 934 b 119 874 217 933 163 913 b 46 694 71 830 46 770 b 119 514 46 619 71 559 b 283 454 163 474 217 454 b 446 514 349 454 403 474 b 519 691 495 559 519 618 b 446 874 519 768 495 829 b 282 934 403 914 348 934 m 283 837 b 402 692 355 836 402 779 b 368 591 402 651 391 617 b 283 551 346 564 317 551 b 197 591 248 551 219 564 b 163 694 174 617 163 652 b 197 797 163 736 174 770 b 283 837 219 823 248 837 m 943 471 b 781 412 878 471 824 450 b 707 232 732 368 707 308 b 781 52 707 157 732 96 b 944 -8 824 12 878 -8 b 1107 52 1010 -8 1064 12 b 1181 229 1156 96 1181 155 b 1107 412 1181 306 1156 367 b 943 471 1064 452 1009 471 m 944 374 b 1063 230 1017 374 1063 317 b 1029 128 1063 189 1052 155 b 944 89 1007 102 979 89 b 858 128 909 89 880 102 b 825 231 836 155 825 189 b 858 334 825 274 836 308 b 944 374 880 361 909 374 m 936 808 b 1000 886 968 851 990 877 b 1051 904 1011 895 1028 901 l 1051 926 l 810 926 l 810 904 b 851 863 838 897 851 883 b 821 808 851 852 841 833 l 287 119 b 220 43 256 79 233 54 b 165 22 207 33 189 25 l 165 0 l 407 0 l 407 22 b 366 57 380 27 366 39 b 391 103 366 66 374 82 l 936 808 "},"&":{"ha":1074,"x_min":0,"x_max":0,"o":"m 1038 637 b 882 555 976 620 924 593 b 755 388 841 519 798 463 b 646 517 729 444 692 486 b 741 608 692 549 724 580 b 768 710 760 635 768 670 b 677 880 768 783 738 839 b 458 942 614 921 542 942 b 261 890 385 942 319 924 b 155 714 191 846 155 788 b 247 539 155 651 186 593 b 41 264 109 472 41 380 b 151 54 41 177 77 107 b 397 -16 216 7 298 -16 b 724 118 523 -16 632 28 b 822 41 751 89 784 63 b 918 5 861 18 892 7 b 1038 -5 985 1 1025 -3 l 1038 208 l 1016 208 b 979 176 1011 186 999 176 b 843 254 936 176 899 197 b 899 350 853 289 872 321 b 951 395 913 367 931 382 b 996 414 970 408 985 414 b 1016 380 1006 414 1013 403 l 1038 380 l 1038 637 m 463 804 b 565 770 505 803 539 792 b 604 686 591 749 604 720 b 554 596 604 648 587 618 b 463 571 528 579 498 571 b 363 604 423 571 389 582 b 323 687 336 626 323 654 b 373 779 323 727 340 758 b 463 804 399 795 429 804 m 415 456 b 564 404 473 455 522 438 b 610 348 583 389 598 370 b 629 287 623 326 629 305 b 568 185 629 248 609 214 b 420 142 528 156 478 142 b 282 186 364 142 318 157 b 229 301 246 216 229 254 b 283 412 229 345 247 382 b 415 456 321 441 364 456 "},"'":{"ha":386,"x_min":0,"x_max":0,"o":"m 273 545 b 241 559 256 549 245 554 b 235 593 237 566 235 576 b 237 616 235 602 235 610 l 281 852 b 292 894 285 875 288 889 b 321 906 295 899 305 903 l 321 926 l 65 926 l 65 906 b 94 894 81 903 91 899 b 105 852 98 889 102 875 l 150 616 b 152 595 151 609 152 602 b 145 559 152 577 150 566 b 113 545 141 554 130 549 l 113 525 l 273 525 l 273 545 "},"(":{"ha":463,"x_min":0,"x_max":0,"o":"m 377 1037 b 168 788 290 975 220 892 b 91 463 117 684 91 576 b 224 45 91 313 136 173 b 377 -111 268 -18 319 -70 l 452 -50 b 313 180 387 26 341 102 b 273 463 286 258 273 352 b 338 807 273 599 294 713 b 452 975 362 859 400 916 l 377 1037 "},")":{"ha":463,"x_min":0,"x_max":0,"o":"m 11 975 b 149 745 75 900 121 823 b 190 463 176 667 190 573 b 125 118 190 327 168 212 b 11 -50 100 66 62 10 l 86 -111 b 294 138 174 -48 243 35 b 372 463 346 241 372 349 b 238 881 372 613 327 753 b 86 1037 195 943 144 996 "},"*":{"ha":701,"x_min":0,"x_max":0,"o":"m 248 993 b 292 952 270 987 285 974 b 305 814 299 931 303 885 b 153 913 195 850 153 878 b 153 924 153 916 153 920 l 129 932 l 65 736 l 90 729 b 139 759 102 749 119 759 b 277 728 164 759 210 749 b 153 611 220 650 178 611 b 126 618 146 611 138 613 l 111 597 l 277 476 l 292 497 b 276 532 281 511 276 522 b 351 675 276 556 301 604 b 425 532 400 604 425 556 b 409 497 425 522 420 511 l 424 476 l 590 597 l 575 618 b 549 611 564 613 555 611 b 502 635 535 611 519 619 b 423 729 485 651 458 682 b 561 759 488 749 534 759 b 611 729 582 759 599 749 l 635 737 l 572 932 l 547 924 b 548 914 548 920 548 916 b 517 865 548 895 538 879 b 395 814 496 852 456 836 b 408 951 397 884 401 929 b 453 993 416 974 431 987 l 453 1019 l 248 1019 "},"+":{"ha":1065,"x_min":0,"x_max":0,"o":"m 466 155 b 422 110 466 130 455 117 l 422 90 l 642 90 l 642 109 b 599 155 610 117 599 130 l 599 397 l 841 397 b 886 353 866 397 878 386 l 906 353 l 906 573 l 886 573 b 841 530 878 541 866 530 l 599 530 l 599 771 b 642 817 599 798 610 808 l 642 836 l 422 836 l 422 816 b 466 771 455 808 466 796 l 466 530 l 224 530 b 179 573 199 530 186 541 l 159 573 l 159 353 l 178 353 b 224 397 186 386 199 397 l 466 397 "},",":{"ha":426,"x_min":0,"x_max":0,"o":"m 166 -213 b 324 47 271 -139 324 -52 b 296 156 324 90 315 125 b 202 206 274 189 243 206 b 102 96 142 206 102 163 b 201 -16 102 29 141 -16 b 248 -9 211 -16 227 -14 b 214 -98 241 -45 230 -75 b 134 -170 197 -121 171 -145 "},"-":{"ha":309,"x_min":0,"x_max":0,"o":"m 287 497 b 237 453 278 464 265 453 l 71 453 b 22 497 43 453 30 465 l 0 497 l 0 262 l 22 262 b 71 306 30 294 43 306 l 237 306 b 287 262 265 306 278 295 l 309 262 l 309 497 "},".":{"ha":426,"x_min":0,"x_max":0,"o":"m 213 206 b 134 173 182 205 155 195 b 102 96 113 152 102 126 b 134 16 102 65 113 39 b 213 -16 156 -5 182 -16 b 291 16 243 -16 269 -5 b 324 94 313 38 324 64 b 292 174 324 125 313 152 b 213 206 271 195 244 206 "},"/":{"ha":1055,"x_min":0,"x_max":0,"o":"m 893 808 b 958 886 926 851 947 877 b 1008 904 968 895 985 901 l 1008 926 l 691 926 l 691 904 b 732 863 718 897 732 883 b 702 808 732 852 722 833 l 168 119 b 101 43 136 79 114 54 b 46 22 88 33 70 25 l 46 0 l 363 0 l 363 22 b 323 57 336 27 323 39 b 348 103 323 66 331 82 l 893 808 "},":":{"ha":426,"x_min":0,"x_max":0,"o":"m 213 206 b 134 173 182 205 155 195 b 102 96 113 152 102 126 b 134 16 102 65 113 39 b 213 -16 156 -5 182 -16 b 291 16 243 -16 269 -5 b 324 94 313 38 324 64 b 292 174 324 125 313 152 b 213 206 271 195 244 206 m 213 776 b 134 743 182 775 155 764 b 102 665 113 722 102 696 b 134 586 102 635 113 608 b 213 553 156 564 182 553 b 291 586 243 553 269 564 b 324 664 313 608 324 633 b 292 743 324 695 313 722 b 213 776 271 765 244 776 "},";":{"ha":426,"x_min":0,"x_max":0,"o":"m 166 -213 b 324 47 271 -139 324 -52 b 296 156 324 90 315 125 b 202 206 274 189 243 206 b 102 96 142 206 102 163 b 201 -16 102 29 141 -16 b 248 -9 211 -16 227 -14 b 214 -98 241 -45 230 -75 b 134 -170 197 -121 171 -145 m 213 776 b 134 743 182 775 155 764 b 102 665 113 722 102 696 b 134 586 102 635 113 608 b 213 553 156 564 182 553 b 291 586 243 553 269 564 b 324 664 313 608 324 633 b 292 743 324 695 313 722 b 213 776 271 765 244 776 "},"<":{"ha":694,"x_min":0,"x_max":0,"o":"m 46 546 l 46 381 l 648 68 l 648 263 l 254 463 l 648 663 l 648 859 "},"=":{"ha":1065,"x_min":0,"x_max":0,"o":"m 178 511 b 224 554 187 543 197 554 l 841 554 b 886 511 866 554 878 543 l 906 511 l 906 730 l 886 730 b 841 687 878 698 866 687 l 224 687 b 179 730 199 687 186 698 l 159 730 l 159 511 m 178 195 b 224 239 187 229 197 239 l 841 239 b 886 195 866 239 878 229 l 906 195 l 906 415 l 886 415 b 841 372 878 382 866 372 l 224 372 b 179 415 199 372 186 383 l 159 415 l 159 195 "},">":{"ha":694,"x_min":0,"x_max":0,"o":"m 47 663 l 440 463 l 47 263 l 47 68 l 648 381 l 648 546 l 47 859 "},"?":{"ha":678,"x_min":0,"x_max":0,"o":"m 163 677 b 157 700 159 687 157 695 b 180 747 157 715 165 730 b 303 798 214 781 255 798 b 409 701 368 798 409 760 b 395 646 409 682 404 663 b 345 572 387 629 370 604 b 289 494 317 537 298 511 b 269 425 280 477 273 454 b 252 363 264 393 258 372 b 216 340 246 354 235 347 l 216 319 l 439 319 l 439 340 b 400 381 409 349 400 357 b 414 448 400 409 405 431 b 474 520 423 466 444 490 b 568 634 518 564 549 602 b 595 736 586 667 595 701 b 510 898 595 805 566 859 b 353 942 468 927 416 942 b 245 924 315 942 279 936 b 132 865 212 913 175 893 b 74 838 104 847 84 838 b 45 848 68 838 59 841 l 28 836 l 144 665 m 339 206 b 260 173 308 205 281 195 b 228 96 239 152 228 126 b 260 16 228 65 239 39 b 339 -16 282 -5 309 -16 b 417 16 370 -16 395 -5 b 450 94 439 38 450 64 b 418 174 450 125 439 152 b 339 206 397 195 370 206 "},"@":{"ha":1141,"x_min":0,"x_max":0,"o":"m 772 656 l 757 608 b 591 674 710 652 654 674 b 353 574 498 674 409 637 b 289 416 310 528 289 475 b 346 292 289 363 308 322 b 481 251 380 264 425 251 b 698 316 562 251 644 276 b 756 253 716 286 735 265 b 839 235 777 241 805 235 b 970 294 883 235 926 255 b 1067 537 1035 353 1067 435 b 941 818 1067 650 1025 744 b 600 940 849 899 735 940 b 382 900 524 940 452 926 b 150 718 281 861 204 800 b 74 453 99 640 74 552 b 231 106 74 311 126 196 b 570 -14 324 26 437 -14 b 802 22 632 -14 709 -2 b 825 26 812 24 820 26 b 862 -7 838 26 850 15 l 878 -3 l 833 156 l 817 152 b 817 141 817 148 817 144 b 801 120 817 131 812 123 b 699 96 774 111 741 102 b 587 86 656 90 619 86 b 227 273 418 86 298 149 b 174 465 192 334 174 398 b 217 629 174 526 189 580 b 377 781 252 690 306 741 b 593 840 448 820 519 840 b 737 813 641 840 689 831 b 877 726 791 793 837 764 b 966 513 937 670 966 599 b 950 404 966 474 961 437 b 907 334 939 371 925 348 b 827 300 879 311 852 300 b 785 331 799 300 785 311 b 787 345 785 336 785 340 l 864 656 m 571 588 b 707 475 659 587 707 547 b 650 378 707 439 688 406 b 505 337 612 351 564 337 b 394 437 437 337 391 378 b 454 551 396 484 416 522 b 571 588 487 576 526 588 "},"A":{"ha":1130,"x_min":0,"x_max":0,"o":"m 825 106 b 839 64 834 87 839 73 b 794 22 839 41 824 26 l 794 0 l 1135 0 l 1135 22 b 1089 43 1116 25 1101 33 b 1050 106 1078 55 1065 75 l 697 819 b 684 864 688 836 684 851 b 724 904 684 883 698 897 l 724 926 l 396 926 l 396 904 b 435 859 422 895 435 880 b 419 805 435 846 430 827 l 79 94 b 46 41 66 67 56 50 b 5 22 37 32 23 25 l 5 0 l 311 0 l 311 22 b 266 63 281 29 266 43 b 279 106 266 73 270 87 l 341 236 l 762 236 m 401 363 l 553 692 l 703 363 "},"B":{"ha":1120,"x_min":0,"x_max":0,"o":"m 908 485 b 1034 680 991 525 1034 590 b 951 866 1034 761 1006 823 b 855 912 924 888 892 903 b 710 926 819 921 770 926 l 83 926 l 83 904 b 127 854 116 895 127 882 l 127 71 b 83 22 127 43 116 31 l 83 0 l 716 0 b 973 68 836 0 911 20 b 1064 267 1034 116 1064 182 b 908 485 1064 373 1012 446 m 329 773 l 684 773 b 832 665 791 773 832 743 b 796 581 832 627 820 600 b 684 557 775 566 737 557 l 329 557 m 329 405 l 672 405 b 810 378 736 405 782 396 b 858 279 842 357 858 324 b 810 179 858 233 842 199 b 672 153 782 161 736 153 l 329 153 "},"C":{"ha":1165,"x_min":0,"x_max":0,"o":"m 962 305 b 964 288 963 298 964 292 b 886 209 964 261 944 241 b 632 141 806 163 722 141 b 379 220 526 141 442 168 b 268 463 305 282 268 363 b 379 706 268 563 305 644 b 632 785 442 759 526 785 b 886 718 722 785 806 763 b 964 639 944 685 964 665 b 962 621 964 634 963 628 l 981 608 l 1109 802 l 1092 814 b 1061 796 1079 802 1069 796 b 992 828 1053 796 1029 807 b 795 919 913 873 848 903 b 607 942 743 935 680 942 b 160 755 408 942 258 880 b 62 463 94 673 62 575 b 117 237 62 381 80 306 b 247 87 149 178 192 127 b 606 -16 340 18 460 -16 b 795 7 680 -16 743 -9 b 992 98 849 22 914 53 b 1061 130 1029 119 1053 130 b 1092 113 1069 130 1079 124 l 1109 125 l 981 318 "},"D":{"ha":1164,"x_min":0,"x_max":0,"o":"m 127 71 b 83 22 127 43 116 31 l 83 0 l 600 0 b 810 22 685 0 755 7 b 955 98 865 38 913 63 b 1102 463 1053 182 1102 304 b 1053 701 1102 554 1086 633 b 860 887 1011 787 947 850 b 600 926 800 913 713 926 l 83 926 l 83 904 b 127 854 116 895 127 882 l 127 71 m 329 773 l 583 773 b 730 754 644 773 693 767 b 825 692 768 742 799 721 b 896 463 872 639 896 563 b 765 186 896 326 852 233 b 583 153 724 163 663 153 l 329 153 "},"E":{"ha":1055,"x_min":0,"x_max":0,"o":"m 705 406 b 753 363 732 406 745 395 l 775 363 l 775 597 l 753 597 b 705 553 745 564 732 553 l 329 553 l 329 773 l 908 773 b 957 730 935 773 948 762 l 979 730 l 979 970 l 957 970 b 908 926 948 937 935 926 l 83 926 l 83 904 b 127 854 116 895 127 882 l 127 71 b 83 22 127 43 116 31 l 83 0 l 924 0 b 973 -43 951 0 964 -11 l 995 -43 l 995 196 l 973 196 b 924 153 964 163 951 153 l 329 153 l 329 406 "},"F":{"ha":1010,"x_min":0,"x_max":0,"o":"m 704 405 b 753 362 732 405 745 394 l 775 362 l 775 596 l 753 596 b 704 552 745 564 732 552 l 329 552 l 329 773 l 903 773 b 951 730 930 773 943 763 l 973 730 l 973 970 l 951 970 b 903 926 943 937 930 926 l 83 926 l 83 904 b 127 854 116 895 127 882 l 127 71 b 83 22 127 43 116 31 l 83 0 l 372 0 l 372 22 b 329 71 340 30 329 43 l 329 405 "},"G":{"ha":1192,"x_min":0,"x_max":0,"o":"m 907 207 b 778 159 871 186 827 170 b 627 141 728 147 677 141 b 373 224 522 141 437 169 b 268 460 303 284 268 363 b 376 704 268 562 304 642 b 616 785 439 758 519 785 b 768 763 664 785 714 778 b 889 710 821 749 861 731 b 913 686 902 701 910 692 b 920 654 917 680 919 669 l 939 644 l 1048 865 l 1029 876 b 996 860 1016 865 1005 860 b 930 878 983 860 960 866 b 770 927 870 901 817 918 b 621 942 723 937 673 942 b 220 817 454 942 321 901 b 62 463 115 730 62 612 b 240 90 62 304 121 180 b 606 -16 334 19 456 -16 b 1118 134 771 -16 942 34 l 1118 151 b 1074 201 1084 160 1074 173 l 1074 391 b 1118 440 1074 418 1085 431 l 1118 462 l 678 462 b 629 505 650 462 638 472 l 608 505 l 608 290 l 629 290 b 678 333 638 322 650 333 l 907 333 "},"H":{"ha":1192,"x_min":0,"x_max":0,"o":"m 863 71 b 819 22 863 43 851 30 l 819 0 l 1108 0 l 1108 22 b 1065 71 1076 31 1065 43 l 1065 855 b 1108 904 1065 882 1076 895 l 1108 926 l 819 926 l 819 904 b 863 855 852 896 863 882 l 863 557 l 329 557 l 329 855 b 372 904 329 882 340 896 l 372 926 l 83 926 l 83 904 b 127 855 116 895 127 882 l 127 71 b 83 22 127 43 116 31 l 83 0 l 372 0 l 372 22 b 329 71 340 30 329 43 l 329 404 l 863 404 "},"I":{"ha":455,"x_min":0,"x_max":0,"o":"m 127 71 b 83 22 127 43 116 31 l 83 0 l 372 0 l 372 22 b 329 71 340 30 329 43 l 329 855 b 372 904 329 882 340 896 l 372 926 l 83 926 l 83 904 b 127 855 116 895 127 882 l 127 71 "},"J":{"ha":840,"x_min":0,"x_max":0,"o":"m 24 27 b 66 46 37 40 51 46 b 153 28 83 46 112 40 b 294 -8 218 9 265 -3 b 397 -16 323 -14 357 -16 b 694 115 534 -16 642 31 b 731 309 719 155 731 220 l 731 854 b 774 904 731 882 742 895 l 774 926 l 486 926 l 486 904 b 529 854 518 895 529 882 l 529 319 b 522 232 529 281 526 252 b 493 182 517 213 507 197 b 361 141 465 155 421 141 b 243 157 323 141 284 146 b 145 197 202 168 170 182 b 111 249 122 213 111 231 b 111 262 111 252 111 257 l 91 270 l 4 35 "},"K":{"ha":1114,"x_min":0,"x_max":0,"o":"m 741 98 b 774 47 763 71 774 54 b 738 22 774 35 762 26 l 738 0 l 1099 0 l 1099 22 b 1044 44 1077 25 1059 33 b 972 121 1029 56 1006 81 l 616 551 l 930 804 l 983 847 b 1042 893 1015 873 1035 889 b 1076 904 1048 897 1060 901 l 1076 926 l 697 926 l 697 904 b 736 877 724 899 736 890 b 710 842 736 868 728 857 l 329 531 l 329 855 b 372 904 329 882 340 896 l 372 926 l 83 926 l 83 904 b 127 855 116 895 127 882 l 127 71 b 83 22 127 43 116 31 l 83 0 l 372 0 l 372 22 b 329 71 340 30 329 43 l 329 319 l 468 433 "},"L":{"ha":983,"x_min":0,"x_max":0,"o":"m 329 854 b 372 904 329 882 340 896 l 372 926 l 83 926 l 83 904 b 127 854 116 895 127 882 l 127 71 b 83 22 127 43 116 31 l 83 0 l 898 0 b 947 -43 926 0 939 -11 l 969 -43 l 969 196 l 947 196 b 898 153 939 163 926 153 l 329 153 "},"M":{"ha":1342,"x_min":0,"x_max":0,"o":"m 1013 640 l 1013 71 b 970 22 1013 43 1002 30 l 970 0 l 1259 0 l 1259 22 b 1215 71 1226 31 1215 43 l 1215 855 b 1259 904 1215 882 1226 895 l 1259 926 l 909 926 l 909 904 b 943 873 931 902 943 891 b 926 827 943 863 937 848 l 670 370 l 418 836 b 408 867 412 847 408 858 b 440 904 408 886 419 899 l 440 926 l 83 926 l 83 904 b 127 855 116 895 127 882 l 127 71 b 83 22 127 43 116 31 l 83 0 l 355 0 l 355 22 b 312 71 323 31 312 43 l 312 640 l 653 13 "},"N":{"ha":1211,"x_min":0,"x_max":0,"o":"m 831 98 b 864 51 853 76 864 60 b 836 22 864 35 854 26 l 836 0 l 1127 0 l 1127 22 b 1084 71 1095 31 1084 43 l 1084 855 b 1127 904 1084 882 1095 895 l 1127 926 l 855 926 l 855 904 b 899 855 888 895 899 882 l 899 306 l 388 837 b 369 873 375 850 369 862 b 398 904 369 888 378 899 l 398 926 l 83 926 l 83 904 b 127 855 116 895 127 882 l 127 71 b 83 22 127 43 116 31 l 83 0 l 355 0 l 355 22 b 312 71 323 31 312 43 l 312 634 "},"O":{"ha":1188,"x_min":0,"x_max":0,"o":"m 592 942 b 133 718 377 939 224 865 b 62 463 85 641 62 556 b 96 282 62 400 73 340 b 212 115 123 217 161 161 b 593 -16 306 27 433 -16 b 1054 209 807 -16 960 59 b 1126 457 1102 286 1126 368 b 976 811 1126 602 1076 720 b 592 942 882 899 753 942 m 593 785 b 815 707 682 785 756 758 b 920 459 885 646 920 564 b 895 334 920 416 911 374 b 815 220 877 289 850 251 b 594 141 757 168 683 141 b 372 220 505 141 431 168 b 268 463 302 281 268 363 b 372 707 268 564 302 645 b 593 785 431 759 505 785 "},"P":{"ha":1063,"x_min":0,"x_max":0,"o":"m 661 376 b 861 401 747 376 813 384 b 976 487 909 418 947 447 b 1026 651 1009 534 1026 589 b 1000 774 1026 694 1017 736 b 926 865 982 812 958 842 b 821 912 896 888 861 903 b 661 926 782 921 728 926 l 83 926 l 83 904 b 127 854 116 895 127 882 l 127 71 b 83 22 127 43 116 31 l 83 0 l 372 0 l 372 22 b 329 71 340 30 329 43 l 329 376 m 329 773 l 637 773 b 767 753 699 773 743 766 b 820 651 799 736 820 695 b 767 548 820 606 799 565 b 637 528 742 535 699 528 l 329 528 "},"Q":{"ha":1188,"x_min":0,"x_max":0,"o":"m 981 119 b 1126 463 1078 212 1126 327 b 1091 644 1126 526 1114 587 b 976 811 1065 709 1027 764 b 594 942 882 899 755 942 b 134 717 380 942 227 867 b 62 463 85 640 62 556 b 96 282 62 400 73 340 b 212 115 123 217 161 161 b 590 -16 306 27 432 -16 b 834 24 686 -16 767 -3 l 914 -73 b 952 -131 939 -104 952 -123 b 939 -164 952 -138 947 -149 l 954 -180 l 1152 0 l 1137 16 b 1106 7 1123 10 1112 7 b 1086 13 1099 7 1092 9 b 1053 45 1080 17 1069 28 l 981 119 m 848 254 b 737 330 804 290 767 315 b 648 351 708 344 678 351 b 537 313 607 351 570 338 l 537 294 b 707 179 602 279 659 241 b 720 163 710 174 715 169 b 595 141 679 149 637 141 b 372 220 505 141 431 168 b 268 463 302 281 268 363 b 372 707 268 563 302 644 b 594 785 431 759 505 785 b 815 707 683 785 757 759 b 920 464 885 645 920 564 b 848 254 920 384 896 314 "},"R":{"ha":1123,"x_min":0,"x_max":0,"o":"m 576 378 l 763 105 b 795 46 784 74 795 54 b 760 22 795 33 783 25 l 760 0 l 1095 0 l 1095 22 b 1041 43 1074 23 1056 30 b 972 130 1027 56 1004 85 l 792 385 b 1044 650 960 411 1044 499 b 1019 775 1044 694 1036 736 b 939 871 1001 815 975 847 b 830 913 908 891 871 905 b 663 926 789 922 733 926 l 83 926 l 83 904 b 127 854 116 895 127 882 l 127 71 b 83 22 127 43 116 31 l 83 0 l 372 0 l 372 22 b 329 71 340 30 329 43 l 329 378 m 329 773 l 641 773 b 739 769 688 773 720 772 b 791 752 757 767 774 761 b 842 652 825 734 842 700 b 791 551 842 604 825 570 b 739 534 775 543 758 537 b 641 530 720 532 687 530 l 329 530 "},"S":{"ha":1000,"x_min":0,"x_max":0,"o":"m 926 858 b 892 842 913 848 902 842 b 844 858 886 842 871 848 b 653 924 768 890 704 912 b 488 942 602 936 547 942 b 170 841 347 942 241 908 b 90 647 117 790 90 725 b 121 521 90 600 100 557 b 218 429 145 480 177 450 b 305 397 248 415 276 404 b 454 377 334 391 384 385 l 558 366 b 698 341 628 359 675 350 b 747 275 731 328 747 306 b 670 172 747 235 717 194 b 516 141 627 151 576 141 b 341 170 461 141 403 151 b 205 237 279 189 234 211 b 176 294 185 254 176 273 l 176 302 l 156 312 l 56 85 l 75 75 b 103 90 88 85 97 90 b 149 72 108 90 123 83 b 511 -16 268 13 389 -16 b 703 9 580 -16 644 -8 b 880 111 783 31 842 65 b 943 285 922 162 943 220 b 844 488 943 367 905 444 b 739 538 813 509 779 526 b 586 566 701 549 649 559 l 479 576 b 340 597 408 584 361 591 b 277 668 298 610 277 633 b 366 768 277 711 313 749 b 493 785 403 779 445 785 b 777 701 602 785 696 758 b 816 652 803 684 816 667 b 815 641 816 649 816 646 l 834 630 l 945 848 "},"T":{"ha":937,"x_min":0,"x_max":0,"o":"m 857 773 b 906 730 884 773 897 763 l 928 730 l 928 970 l 906 970 b 857 926 897 937 884 926 l 80 926 b 31 970 53 926 41 937 l 9 970 l 9 730 l 31 730 b 80 773 40 763 53 773 l 368 773 l 368 71 b 324 22 368 43 357 31 l 324 0 l 613 0 l 613 22 b 570 71 581 31 570 43 l 570 773 "},"U":{"ha":1133,"x_min":0,"x_max":0,"o":"m 1025 854 b 1069 904 1025 882 1036 895 l 1069 926 l 796 926 l 796 904 b 840 854 829 895 840 882 l 840 393 b 831 274 840 339 837 300 b 798 210 825 249 814 227 b 575 141 755 164 680 141 b 353 210 470 141 396 164 b 319 274 336 227 326 249 b 311 393 313 300 311 339 l 311 854 b 355 904 311 882 322 896 l 355 926 l 65 926 l 65 904 b 109 854 98 895 109 882 l 109 336 b 134 168 109 271 117 214 b 229 55 152 120 184 83 b 568 -16 307 7 420 -16 b 971 115 772 -16 906 28 b 1025 336 1007 164 1025 237 l 1025 854 "},"V":{"ha":1069,"x_min":0,"x_max":0,"o":"m 295 812 b 279 866 285 836 279 853 b 324 904 279 886 294 898 l 324 926 l -5 926 l -5 904 b 37 887 15 901 29 896 b 77 812 44 878 58 854 l 397 120 b 418 63 411 91 418 72 b 375 22 418 39 404 26 l 375 0 l 694 0 l 694 22 b 651 62 665 26 651 39 b 671 120 651 71 658 91 l 992 812 b 1032 887 1011 854 1025 878 b 1074 904 1040 896 1054 901 l 1074 926 l 757 926 l 757 904 b 802 866 787 898 802 886 b 786 812 802 853 796 836 l 541 269 "},"W":{"ha":1567,"x_min":0,"x_max":0,"o":"m 989 128 b 1010 67 1003 96 1010 76 b 962 22 1010 42 994 26 l 962 0 l 1264 0 l 1264 22 b 1216 63 1232 27 1216 41 b 1235 128 1216 74 1222 96 l 1500 811 b 1534 880 1514 847 1525 869 b 1581 904 1543 890 1558 898 l 1581 926 l 1263 926 l 1263 904 b 1312 865 1295 898 1312 884 b 1297 811 1312 853 1307 835 l 1115 328 l 926 819 b 915 860 919 839 915 852 b 961 904 915 881 930 896 l 961 926 l 625 926 l 625 904 b 670 864 655 898 670 885 b 657 822 670 857 666 843 l 459 330 l 276 819 b 265 864 269 839 265 854 b 308 904 265 884 279 898 l 308 926 l -14 926 l -14 904 b 33 880 7 900 22 892 b 68 811 43 868 56 845 l 334 128 b 353 68 347 95 353 75 b 307 22 353 43 338 28 l 307 0 l 605 0 l 605 22 b 555 66 572 31 555 45 b 573 117 555 73 561 90 l 785 652 "},"X":{"ha":1045,"x_min":0,"x_max":0,"o":"m 906 808 b 977 889 945 855 968 882 b 1024 904 987 897 1002 902 l 1024 926 l 663 926 l 663 904 b 709 867 694 899 709 886 b 677 808 709 855 699 836 l 530 622 l 385 808 b 355 863 365 833 355 852 b 396 904 355 883 369 897 l 396 926 l 24 926 l 25 904 b 78 887 50 902 67 896 b 145 808 90 878 112 852 l 402 472 l 123 119 b 53 39 88 75 64 49 b 5 22 41 30 26 24 l 5 0 l 360 0 l 360 22 b 315 60 330 24 315 37 b 342 111 315 70 324 87 l 512 332 l 690 103 b 715 57 707 82 715 66 b 674 22 715 39 701 27 l 674 0 l 1041 0 l 1041 22 b 985 43 1017 25 999 33 b 920 119 972 54 950 79 l 640 482 "},"Y":{"ha":990,"x_min":0,"x_max":0,"o":"m 895 808 b 956 881 921 844 941 869 b 1008 904 970 894 988 901 l 1008 926 l 650 926 l 650 904 b 696 863 678 899 696 884 b 668 808 696 853 686 835 l 496 560 l 330 808 b 302 862 311 836 302 854 b 347 904 302 885 317 899 l 347 926 l -18 926 l -18 904 b 34 881 2 901 20 894 b 95 808 49 869 69 844 l 394 387 l 394 71 b 349 22 394 43 382 31 l 349 0 l 640 0 l 640 22 b 596 71 608 31 596 43 l 596 387 "},"Z":{"ha":991,"x_min":0,"x_max":0,"o":"m 928 887 l 928 926 l 131 926 b 81 970 103 926 92 937 l 60 970 l 60 730 l 81 730 b 131 773 90 763 103 773 l 594 773 l 56 47 l 56 0 l 865 0 b 914 -43 892 0 905 -11 l 936 -43 l 936 196 l 914 196 b 865 153 905 163 892 153 l 384 153 "},"[":{"ha":463,"x_min":0,"x_max":0,"o":"m 91 983 b 134 936 123 975 134 962 l 134 -11 b 91 -58 134 -37 123 -50 l 91 -75 l 382 -74 b 433 -117 410 -74 425 -85 l 452 -117 l 452 64 l 433 64 b 374 20 423 29 412 20 l 283 20 l 283 906 l 382 906 b 433 862 412 906 425 895 l 452 862 l 452 1044 l 433 1044 b 382 1000 423 1011 412 1000 l 91 1000 "},"\\":{"ha":1055,"x_min":0,"x_max":0,"o":"m 352 808 b 322 863 332 833 322 852 b 363 904 322 883 336 897 l 363 926 l 46 926 l 46 904 b 96 886 69 901 86 895 b 161 808 107 877 129 851 l 707 103 b 731 57 723 82 731 66 b 690 22 731 39 718 27 l 690 0 l 1008 0 l 1008 22 b 954 43 985 25 966 33 b 886 119 941 54 918 79 l 352 808 "},"]":{"ha":463,"x_min":0,"x_max":0,"o":"m 80 1000 b 29 1044 51 1000 39 1011 l 11 1044 l 11 862 l 29 862 b 80 906 38 895 51 906 l 180 906 l 180 20 l 89 20 b 29 64 51 20 39 29 l 11 64 l 11 -117 l 29 -117 b 80 -74 38 -85 52 -74 l 372 -75 l 372 -58 b 328 -11 340 -49 328 -37 l 328 936 b 372 983 328 962 340 975 l 372 1000 "},"^":{"ha":694,"x_min":0,"x_max":0,"o":"m 347 798 l 496 490 l 671 490 l 457 931 l 238 931 l 24 490 l 199 490 "},"_":{"ha":694,"x_min":0,"x_max":0,"o":"m 0 -199 l 694 -199 l 694 -81 l 0 -81 "},"`":{"ha":694,"x_min":0,"x_max":0,"o":"m 167 1021 b 207 1003 184 1021 198 1015 l 303 885 b 307 874 306 882 307 878 b 294 863 307 867 302 863 l 290 863 l 290 845 l 437 845 l 437 863 b 401 888 416 863 410 868 l 357 998 b 354 1008 355 1002 354 1006 b 373 1021 354 1016 360 1020 l 373 1040 l 167 1040 "},"a":{"ha":964,"x_min":0,"x_max":0,"o":"m 684 112 b 701 60 696 91 701 74 b 657 18 701 37 686 23 l 657 0 l 967 0 l 967 18 b 926 37 949 22 935 28 b 888 95 917 45 904 65 l 601 640 b 584 694 589 661 584 680 b 621 741 584 715 596 730 l 621 760 l 326 760 l 326 741 b 364 697 351 730 364 715 b 349 642 364 682 359 663 l 71 80 b 41 35 60 58 50 42 b 3 19 33 27 20 22 l 3 0 l 283 0 l 283 19 b 239 60 254 25 239 39 b 254 107 239 72 244 87 l 293 190 l 642 190 m 345 296 l 463 540 l 587 296 "},"b":{"ha":941,"x_min":0,"x_max":0,"o":"m 764 408 b 848 475 804 430 832 452 b 872 564 864 498 872 528 b 803 709 872 626 849 674 b 598 760 760 743 691 760 l 66 760 l 66 741 b 110 690 99 730 110 718 l 110 69 b 66 19 110 41 98 27 l 66 0 l 607 0 b 812 54 694 0 763 18 b 897 225 869 94 897 151 b 847 357 897 280 880 324 b 764 408 829 374 802 391 m 292 622 l 568 622 b 687 549 655 622 687 602 b 568 475 687 494 654 475 l 292 475 m 292 337 l 574 337 b 711 237 666 337 711 304 b 574 138 711 171 666 138 l 292 138 "},"c":{"ha":968,"x_min":0,"x_max":0,"o":"m 794 260 b 796 241 795 249 796 242 b 722 175 796 222 771 200 b 530 127 658 143 594 127 b 326 191 448 127 380 149 b 235 380 265 240 235 303 b 326 568 235 456 265 519 b 530 633 380 611 448 633 b 705 593 589 633 647 619 b 796 517 766 565 796 540 b 795 509 796 515 796 513 b 794 498 795 507 795 504 l 809 488 l 924 654 l 908 666 b 882 654 897 659 888 654 b 829 680 875 654 857 663 b 664 755 767 715 712 741 b 499 776 616 769 561 776 b 127 616 332 776 208 722 b 50 380 75 547 50 469 b 92 200 50 315 64 255 b 197 73 118 149 153 106 b 500 -16 275 14 376 -16 b 665 5 562 -16 617 -9 b 829 80 712 19 767 44 b 882 105 857 97 875 105 b 908 94 888 105 897 101 l 924 105 l 809 272 "},"d":{"ha":977,"x_min":0,"x_max":0,"o":"m 110 69 b 66 19 110 41 98 27 l 66 0 l 512 0 b 812 85 653 0 742 25 b 928 380 889 152 928 250 b 893 564 928 450 916 511 b 731 725 860 639 806 692 b 512 760 677 748 605 760 l 66 760 l 66 741 b 110 690 99 730 110 718 l 110 69 m 292 622 l 486 622 b 680 561 580 622 638 604 b 743 380 722 518 743 458 b 680 199 743 302 722 241 b 486 138 640 158 574 138 l 292 138 "},"e":{"ha":891,"x_min":0,"x_max":0,"o":"m 578 323 b 629 279 607 323 620 311 l 647 279 l 647 498 l 629 498 b 578 455 618 466 606 455 l 292 455 l 292 622 l 753 622 b 804 578 782 622 795 611 l 822 578 l 822 803 l 804 803 b 753 760 795 770 782 760 l 66 760 l 66 741 b 110 690 99 730 110 718 l 110 69 b 66 19 110 41 98 27 l 66 0 l 774 0 b 824 -43 802 0 816 -12 l 843 -43 l 843 182 l 824 182 b 774 138 815 149 802 138 l 292 138 l 292 323 "},"f":{"ha":846,"x_min":0,"x_max":0,"o":"m 578 323 b 629 279 607 323 620 311 l 647 279 l 647 498 l 629 498 b 578 455 618 466 607 455 l 292 455 l 292 622 l 747 622 b 798 578 777 622 789 610 l 817 578 l 817 803 l 798 803 b 747 760 789 770 777 760 l 66 760 l 66 741 b 110 690 99 730 110 718 l 110 69 b 66 19 110 41 98 27 l 66 0 l 335 0 l 335 18 b 292 69 302 28 292 41 l 292 323 "},"g":{"ha":1000,"x_min":0,"x_max":0,"o":"m 751 177 b 527 127 690 144 616 127 b 310 196 434 127 361 151 b 235 375 260 241 235 300 b 317 565 235 454 262 518 b 519 632 370 610 437 632 b 718 583 590 632 656 616 b 768 531 751 565 768 548 l 768 527 l 785 519 l 875 710 l 859 719 b 831 708 848 711 839 708 b 766 727 825 708 803 714 b 513 776 671 760 587 776 b 132 614 345 776 218 722 b 50 376 77 545 50 465 b 95 193 50 311 64 250 b 197 73 121 145 155 105 b 502 -16 275 14 376 -16 b 940 105 648 -16 793 24 l 940 121 b 897 172 908 130 897 144 l 897 332 b 940 388 897 363 908 379 l 940 408 l 578 408 b 528 450 549 408 536 418 l 509 450 l 509 250 l 528 250 b 578 293 536 282 549 293 l 751 293 "},"h":{"ha":1008,"x_min":0,"x_max":0,"o":"m 715 69 b 672 19 715 41 704 27 l 672 0 l 941 0 l 941 18 b 897 69 908 28 897 41 l 897 690 b 941 741 897 718 908 732 l 941 760 l 672 760 l 672 741 b 715 690 705 730 715 718 l 715 468 l 292 468 l 292 690 b 335 741 292 718 302 732 l 335 760 l 66 760 l 66 741 b 110 690 99 730 110 718 l 110 69 b 66 19 110 41 98 27 l 66 0 l 335 0 l 335 18 b 292 69 302 28 292 41 l 292 330 l 715 330 "},"i":{"ha":402,"x_min":0,"x_max":0,"o":"m 292 690 b 335 741 292 718 302 732 l 335 760 l 66 760 l 66 741 b 110 690 99 730 110 718 l 110 69 b 66 19 110 41 98 27 l 66 0 l 335 0 l 335 18 b 292 69 302 28 292 41 l 292 690 m 203 1040 b 136 1013 176 1040 155 1031 b 109 948 118 995 109 973 b 136 882 109 922 118 900 b 203 854 155 863 177 854 b 269 882 229 854 250 863 b 296 947 287 900 296 922 b 269 1013 296 973 288 995 b 203 1040 251 1031 229 1040 "},"j":{"ha":702,"x_min":0,"x_max":0,"o":"m 22 15 b 52 33 32 26 42 33 b 73 28 58 33 64 31 b 308 -16 166 -1 245 -16 b 564 78 422 -16 518 18 b 606 257 592 114 606 174 l 606 690 b 650 741 606 718 617 732 l 650 760 l 381 760 l 381 741 b 425 690 414 730 425 718 l 425 260 b 282 127 425 170 379 127 b 179 144 250 127 216 133 b 103 182 143 156 117 168 b 88 221 93 192 88 205 l 71 227 l 3 20 "},"k":{"ha":951,"x_min":0,"x_max":0,"o":"m 609 96 b 640 58 627 75 637 63 b 645 45 644 54 645 50 b 608 18 645 33 633 24 l 608 0 l 940 0 l 940 18 b 886 44 920 23 901 31 b 808 126 870 57 844 84 l 526 450 l 783 654 b 868 726 828 694 857 718 b 911 741 880 733 895 739 l 911 760 l 570 760 l 570 741 b 609 713 596 736 609 727 b 577 669 609 701 598 686 l 292 441 l 292 690 b 335 741 292 718 302 732 l 335 760 l 66 760 l 66 741 b 110 690 99 730 110 718 l 110 69 b 66 19 110 41 98 27 l 66 0 l 335 0 l 335 18 b 292 69 302 28 292 41 l 292 258 l 399 347 "},"l":{"ha":798,"x_min":0,"x_max":0,"o":"m 292 690 b 335 741 292 718 302 732 l 335 760 l 66 760 l 66 741 b 110 690 99 730 110 718 l 110 69 b 66 19 110 41 98 27 l 66 0 l 717 0 b 768 -43 746 0 759 -11 l 786 -43 l 786 182 l 768 182 b 717 138 758 149 746 138 l 292 138 "},"m":{"ha":1137,"x_min":0,"x_max":0,"o":"m 845 499 l 845 69 b 802 19 845 41 833 27 l 802 0 l 1070 0 l 1070 18 b 1027 69 1038 27 1027 41 l 1027 690 b 1070 741 1027 718 1038 732 l 1070 760 l 758 760 l 758 741 b 791 705 780 736 791 724 b 758 629 791 690 780 665 l 568 315 l 378 634 b 355 702 363 661 355 684 b 387 741 355 721 366 734 l 387 760 l 66 760 l 66 741 b 110 690 99 732 110 718 l 110 69 b 66 19 110 41 98 27 l 66 0 l 319 0 l 319 18 b 275 69 286 28 275 41 l 275 499 l 552 24 "},"n":{"ha":1033,"x_min":0,"x_max":0,"o":"m 678 103 b 715 63 698 83 710 70 b 724 43 721 56 724 50 b 694 18 724 31 713 22 l 694 0 l 966 0 l 966 18 b 922 69 933 28 922 41 l 922 690 b 966 741 922 718 933 732 l 966 760 l 713 760 l 713 741 b 757 690 746 732 757 718 l 757 272 l 350 676 b 328 714 336 690 328 703 b 358 741 328 727 338 736 l 358 760 l 66 760 l 66 741 b 110 690 99 730 110 718 l 110 69 b 66 19 110 41 98 27 l 66 0 l 319 0 l 319 18 b 275 69 287 27 275 41 l 275 500 "},"o":{"ha":990,"x_min":0,"x_max":0,"o":"m 494 776 b 195 684 374 774 275 744 b 50 380 98 611 50 509 b 195 76 50 252 98 150 b 495 -16 274 14 374 -16 b 795 76 616 -16 716 14 b 940 374 892 150 940 250 b 795 684 940 506 892 610 b 494 776 715 745 614 776 m 494 632 b 686 557 572 631 637 606 b 755 376 732 511 755 451 b 686 203 755 308 732 250 b 495 127 637 153 573 127 b 303 203 416 127 353 153 b 235 380 258 250 235 309 b 303 557 235 451 258 510 b 494 632 353 607 416 632 "},"p":{"ha":905,"x_min":0,"x_max":0,"o":"m 562 312 b 876 536 774 312 876 385 b 783 715 876 614 841 681 b 562 760 734 745 660 760 l 66 760 l 66 741 b 110 690 99 730 110 718 l 110 69 b 66 19 110 41 98 27 l 66 0 l 335 0 l 335 18 b 292 69 302 28 292 41 l 292 312 m 292 622 l 551 622 b 650 608 599 622 631 617 b 690 536 677 595 690 571 b 650 463 690 500 677 476 b 551 450 631 454 598 450 l 292 450 "},"q":{"ha":1004,"x_min":0,"x_max":0,"o":"m 824 100 b 941 380 902 172 941 266 b 795 684 941 508 892 609 b 495 776 716 745 616 776 b 195 684 375 776 275 745 b 50 380 98 609 50 508 b 195 76 50 252 98 151 b 494 -16 274 14 374 -16 b 703 22 572 -16 642 -3 l 779 -66 b 810 -113 800 -90 810 -106 b 798 -139 810 -121 806 -130 l 810 -153 l 975 -2 l 962 12 b 938 -1 953 4 945 0 b 892 27 925 -1 910 8 l 824 100 m 703 223 b 538 300 642 274 587 300 b 450 269 509 300 479 290 l 450 257 b 598 146 498 245 548 208 b 494 127 564 134 529 127 b 303 203 416 127 353 153 b 235 380 258 250 235 309 b 303 557 235 451 258 510 b 495 632 353 607 416 632 b 687 557 574 632 638 607 b 755 381 732 510 755 451 b 703 223 755 319 738 267 "},"r":{"ha":954,"x_min":0,"x_max":0,"o":"m 474 312 l 626 94 b 648 49 640 74 648 59 b 612 18 648 35 636 24 l 612 0 l 931 0 l 931 18 b 878 43 911 22 893 31 b 815 119 862 57 842 82 l 671 320 b 885 539 821 351 885 416 b 803 714 885 620 858 678 b 712 749 777 731 746 743 b 564 760 678 756 629 760 l 66 760 l 66 741 b 110 690 99 730 110 718 l 110 69 b 66 19 110 41 98 27 l 66 0 l 335 0 l 335 18 b 292 69 302 28 292 41 l 292 312 m 292 622 l 566 622 b 670 603 616 622 650 616 b 700 536 690 590 700 568 b 658 463 700 500 686 475 b 566 450 638 454 607 450 l 292 450 "},"s":{"ha":855,"x_min":0,"x_max":0,"o":"m 781 700 b 753 685 769 690 760 685 b 714 698 745 685 732 689 b 553 758 652 727 598 747 b 408 776 508 770 460 776 b 166 716 312 776 231 756 b 59 526 95 672 59 609 b 151 349 59 452 94 385 b 231 317 174 335 200 325 b 362 300 261 310 304 304 l 469 291 b 586 273 525 286 564 280 b 635 215 618 262 635 243 b 564 140 635 180 611 156 b 435 121 526 127 484 121 b 271 143 381 121 326 129 b 153 195 215 158 176 176 b 140 225 144 203 140 214 l 140 231 l 123 237 l 45 52 l 62 45 b 87 61 69 56 78 61 b 105 56 92 61 98 60 b 437 -16 212 8 322 -16 b 707 48 550 -16 640 5 b 811 231 777 93 811 154 b 778 346 811 274 800 312 b 711 411 760 373 738 395 b 497 465 662 440 591 458 l 390 473 b 254 495 323 479 277 486 b 218 543 230 505 218 520 b 292 619 218 576 243 602 b 408 637 326 631 364 637 b 561 615 460 637 511 630 b 675 558 611 600 649 581 b 689 523 684 549 689 538 l 705 514 l 797 691 "},"t":{"ha":790,"x_min":0,"x_max":0,"o":"m 709 622 b 760 578 739 622 751 610 l 779 578 l 779 803 l 760 803 b 709 760 751 770 739 760 l 80 760 b 30 803 51 760 38 771 l 11 803 l 11 578 l 29 578 b 80 622 38 610 51 622 l 304 622 l 304 69 b 260 19 304 41 292 27 l 260 0 l 529 0 l 529 18 b 486 69 496 28 486 41 l 486 622 "},"u":{"ha":959,"x_min":0,"x_max":0,"o":"m 863 690 b 907 741 863 718 874 732 l 907 760 l 654 760 l 654 741 b 697 690 687 730 697 718 l 697 325 b 686 227 697 282 694 250 b 648 172 679 205 667 186 b 488 127 611 142 557 127 b 327 172 418 127 364 142 b 288 227 309 186 295 205 b 277 325 280 250 277 282 l 277 690 b 321 741 277 718 288 732 l 321 760 l 52 760 l 52 741 b 95 690 84 730 95 718 l 95 288 b 119 136 95 227 103 176 b 218 33 137 92 170 57 b 479 -16 284 0 372 -16 b 809 86 641 -16 751 18 b 863 288 845 129 863 197 l 863 690 "},"v":{"ha":903,"x_min":0,"x_max":0,"o":"m 275 642 b 258 694 263 667 258 684 b 301 741 258 716 272 732 l 301 760 l -3 760 l -3 741 b 36 719 15 734 28 728 b 67 666 44 711 54 693 l 333 106 b 347 61 342 87 347 71 b 303 18 347 39 332 24 l 303 0 l 601 0 l 601 18 b 556 61 571 24 556 39 b 570 106 556 71 561 87 l 836 666 b 867 719 849 692 859 710 b 907 741 876 728 888 734 l 907 760 l 613 760 l 613 741 b 657 694 642 732 657 716 b 641 642 657 682 652 665 l 457 240 "},"w":{"ha":1333,"x_min":0,"x_max":0,"o":"m 823 115 b 838 68 833 90 838 74 b 794 18 838 43 823 26 l 794 0 l 1088 0 l 1088 18 b 1042 66 1058 24 1042 39 b 1053 115 1042 80 1046 96 l 1257 633 b 1295 709 1272 671 1284 697 b 1343 741 1305 722 1321 732 l 1343 760 l 1048 760 l 1048 741 b 1092 694 1081 730 1092 719 b 1083 652 1092 682 1089 668 l 945 290 l 806 649 b 795 693 799 669 795 683 b 839 741 795 715 810 731 l 839 760 l 501 760 l 501 741 b 547 695 532 733 547 718 b 534 646 547 684 543 667 l 392 290 l 250 649 b 236 698 241 672 236 688 b 278 741 236 718 250 732 l 278 760 l -11 760 l -11 741 b 37 712 10 735 26 726 b 76 633 47 699 60 673 l 277 115 b 289 64 285 94 289 77 b 248 18 289 41 275 25 l 248 0 l 531 0 l 531 18 b 486 64 501 24 486 39 b 498 115 486 77 490 94 l 665 528 "},"x":{"ha":882,"x_min":0,"x_max":0,"o":"m 742 648 b 803 719 771 686 791 710 b 857 741 814 728 833 736 l 857 760 l 526 760 l 526 741 b 571 701 556 734 571 721 b 543 646 571 689 562 671 l 448 517 l 345 654 b 324 700 331 673 324 688 b 368 741 324 719 339 732 l 368 760 l 21 760 l 21 741 b 132 648 53 735 90 705 l 329 385 l 105 96 b 54 39 83 68 66 49 b 3 18 42 31 25 23 l 3 0 l 327 0 l 327 18 b 283 56 298 27 283 40 b 301 98 283 68 289 82 l 425 260 l 549 98 b 571 54 564 78 571 63 b 528 18 571 37 557 24 l 528 0 l 878 0 l 878 18 b 766 96 835 24 805 44 l 542 393 "},"y":{"ha":831,"x_min":0,"x_max":0,"o":"m 732 643 b 792 714 757 677 777 701 b 846 741 808 727 825 736 l 846 760 l 521 760 l 522 741 b 565 700 551 732 565 719 b 533 640 565 690 554 670 l 425 486 l 315 640 b 283 699 294 669 283 689 b 327 741 283 719 298 733 l 327 760 l -15 760 l -15 741 b 39 714 6 736 24 727 b 100 643 54 701 75 677 l 325 333 l 325 69 b 281 18 325 40 314 27 l 281 0 l 550 0 l 550 18 b 507 69 517 28 507 41 l 507 333 "},"z":{"ha":846,"x_min":0,"x_max":0,"o":"m 794 726 l 794 760 l 126 760 b 75 803 97 760 84 770 l 57 803 l 57 578 l 75 578 b 126 622 85 611 97 622 l 494 622 l 52 41 l 52 0 l 732 0 b 782 -43 761 0 774 -12 l 801 -43 l 801 182 l 783 182 b 732 138 772 149 761 138 l 347 138 "},"{":{"ha":463,"x_min":0,"x_max":0,"o":"m 454 72 l 435 72 b 377 28 427 37 415 28 l 321 28 b 248 125 272 33 248 65 l 248 366 b 236 417 248 387 244 404 b 192 463 229 431 214 446 b 236 509 214 480 229 496 b 248 560 244 523 248 540 l 248 801 b 321 899 248 861 272 894 l 377 899 b 435 854 415 899 427 890 l 454 854 l 454 1044 l 435 1044 b 377 1000 427 1009 415 1000 l 220 1000 b 135 968 189 1000 161 989 b 97 896 110 946 97 922 l 97 642 b 88 546 96 591 93 559 b 55 526 83 532 73 526 l 13 526 b -23 569 -8 526 -16 536 l -39 569 l -39 357 l -23 357 b 13 401 -16 390 -7 401 l 55 401 b 88 380 73 401 83 394 b 97 283 93 366 96 334 l 97 31 b 141 -45 96 3 111 -23 b 220 -74 166 -64 192 -74 l 377 -74 b 435 -117 414 -74 427 -83 l 454 -117 "},"|":{"ha":694,"x_min":0,"x_max":0,"o":"m 248 -231 l 446 -231 l 446 926 l 248 926 "},"}":{"ha":463,"x_min":0,"x_max":0,"o":"m 28 -117 b 86 -74 37 -83 49 -74 l 244 -74 b 328 -41 275 -74 303 -63 b 367 31 354 -19 367 5 l 367 283 b 375 380 368 334 370 366 b 408 401 380 394 391 401 l 450 401 b 486 357 471 401 479 391 l 503 357 l 503 569 l 486 569 b 450 526 479 536 471 526 l 408 526 b 375 546 391 526 380 532 b 367 642 370 559 368 591 l 367 896 b 323 972 367 924 352 949 b 244 1000 298 991 272 1000 l 86 1000 b 28 1044 48 1000 37 1009 l 9 1044 l 9 854 l 28 854 b 86 899 37 890 49 899 l 142 899 b 216 801 192 894 216 861 l 216 560 b 227 509 216 540 220 523 b 272 463 235 496 250 480 b 227 417 250 446 235 431 b 216 366 220 404 216 387 l 216 125 b 142 28 216 65 192 33 l 86 28 b 28 72 48 28 37 37 l 9 72 l 9 -117 "},"~":{"ha":926,"x_min":0,"x_max":0,"o":"m 225 328 b 326 416 261 393 288 416 b 406 395 346 416 372 410 b 542 340 479 364 525 346 b 595 331 559 334 577 331 b 736 406 650 331 696 356 b 800 517 757 431 778 468 l 703 597 b 602 510 671 539 637 510 b 485 548 581 510 543 523 b 332 594 416 578 365 594 b 188 515 276 594 228 568 b 129 408 167 488 147 452 l 225 328 "},"Ä":{"ha":1189,"x_min":0,"x_max":0,"o":"m 562 155 b 374 211 496 154 433 172 b 273 355 314 250 281 298 l 905 355 l 905 494 l 61 494 b 64 432 62 474 62 453 b 77 316 66 396 69 351 b 188 111 93 237 142 145 b 592 -19 288 24 422 -19 b 949 89 739 -19 857 17 b 1067 235 998 128 1037 177 b 1120 456 1103 304 1120 378 b 1023 745 1120 564 1088 661 b 578 940 922 875 774 940 b 283 881 492 940 394 920 b 207 858 239 865 214 858 b 175 871 198 858 187 862 l 156 861 l 261 629 l 280 639 l 280 644 b 340 706 280 665 300 685 b 572 766 412 746 489 766 b 807 685 668 766 746 739 b 904 455 871 628 904 551 b 816 238 904 365 875 292 b 562 155 756 183 671 155 "},"Å":{"ha":1130,"x_min":0,"x_max":0,"o":"m 825 106 b 839 64 834 87 839 73 b 794 22 839 41 824 26 l 794 0 l 1135 0 l 1135 22 b 1089 43 1116 25 1101 33 b 1050 106 1078 55 1065 75 l 697 819 b 684 864 688 836 684 851 b 724 904 684 883 698 897 l 724 926 l 396 926 l 396 904 b 435 859 422 895 435 880 b 419 805 435 846 430 827 l 79 94 b 46 41 66 67 56 50 b 5 22 37 32 23 25 l 5 0 l 311 0 l 311 22 b 266 63 281 29 266 43 b 279 106 266 73 270 87 l 341 236 l 762 236 m 401 363 l 553 692 l 703 363 m 560 1230 b 450 1192 516 1229 479 1217 b 406 1103 420 1168 406 1139 b 451 1012 406 1067 420 1037 b 561 975 481 987 518 975 b 671 1011 603 975 640 987 b 716 1101 701 1035 716 1065 b 671 1192 716 1137 701 1167 b 560 1230 641 1217 604 1230 m 561 1159 b 629 1101 602 1159 629 1135 b 561 1045 629 1071 598 1045 b 492 1102 523 1045 492 1070 b 561 1159 492 1135 521 1159 "},"Ç":{"ha":1165,"x_min":0,"x_max":0,"o":"m 962 305 b 964 288 963 298 964 292 b 886 209 964 261 944 241 b 632 141 806 163 722 141 b 379 220 526 141 442 168 b 268 463 305 282 268 363 b 379 706 268 563 305 644 b 632 785 442 759 526 785 b 886 718 722 785 806 763 b 964 639 944 685 964 665 b 962 621 964 634 963 628 l 981 608 l 1109 802 l 1092 814 b 1061 796 1079 802 1069 796 b 992 828 1053 796 1029 807 b 795 919 913 873 848 903 b 607 942 743 935 680 942 b 160 755 408 942 258 880 b 62 463 94 673 62 575 b 117 237 62 381 80 306 b 247 87 149 178 192 127 b 606 -16 340 18 460 -16 b 795 7 680 -16 743 -9 b 992 98 849 22 914 53 b 1061 130 1029 119 1053 130 b 1092 113 1069 130 1079 124 l 1109 125 l 981 318 m 505 -181 b 561 -155 520 -163 539 -155 b 614 -208 590 -155 614 -178 b 511 -271 614 -246 574 -271 b 435 -260 488 -271 463 -267 l 418 -295 b 568 -316 458 -309 508 -316 b 701 -279 625 -316 670 -304 b 744 -189 730 -255 744 -225 b 549 -70 744 -113 673 -70 b 534 -73 542 -70 536 -71 b 522 -92 532 -75 528 -81 l 483 -167 "},"É":{"ha":1055,"x_min":0,"x_max":0,"o":"m 705 406 b 753 363 732 406 745 395 l 775 363 l 775 597 l 753 597 b 705 553 745 564 732 553 l 329 553 l 329 773 l 908 773 b 957 730 935 773 948 762 l 979 730 l 979 970 l 957 970 b 908 926 948 937 935 926 l 83 926 l 83 904 b 127 854 116 895 127 882 l 127 71 b 83 22 127 43 116 31 l 83 0 l 924 0 b 973 -43 951 0 964 -11 l 995 -43 l 995 196 l 973 196 b 924 153 964 163 951 153 l 329 153 l 329 406 m 519 1197 l 519 1179 b 538 1166 532 1177 538 1173 b 536 1156 538 1163 538 1160 l 491 1045 b 455 1021 483 1025 477 1021 l 455 1002 l 602 1002 l 602 1021 l 600 1021 b 585 1031 590 1021 585 1024 b 589 1042 585 1036 587 1039 l 686 1160 b 726 1179 694 1172 708 1178 l 726 1197 "},"Ñ":{"ha":1211,"x_min":0,"x_max":0,"o":"m 831 98 b 864 51 853 76 864 60 b 836 22 864 35 854 26 l 836 0 l 1127 0 l 1127 22 b 1084 71 1095 31 1084 43 l 1084 855 b 1127 904 1084 882 1095 895 l 1127 926 l 855 926 l 855 904 b 899 855 888 895 899 882 l 899 306 l 388 837 b 369 873 375 850 369 862 b 398 904 369 888 378 899 l 398 926 l 83 926 l 83 904 b 127 855 116 895 127 882 l 127 71 b 83 22 127 43 116 31 l 83 0 l 355 0 l 355 22 b 312 71 323 31 312 43 l 312 634 m 742 1176 b 753 1154 749 1167 753 1160 b 715 1120 753 1137 734 1120 b 681 1126 704 1120 692 1122 l 580 1166 b 536 1175 564 1173 550 1175 b 433 1121 494 1175 460 1157 b 407 1105 425 1111 416 1105 b 384 1111 402 1105 395 1107 l 374 1099 l 475 1006 l 488 1015 b 477 1036 481 1024 477 1031 b 517 1070 477 1052 498 1070 b 547 1065 527 1070 536 1068 l 647 1026 b 705 1015 667 1019 686 1015 b 801 1076 739 1015 770 1035 b 819 1088 807 1084 812 1088 b 844 1082 822 1088 831 1086 l 854 1095 l 756 1186 "},"Ö":{"ha":1188,"x_min":0,"x_max":0,"o":"m 592 942 b 133 718 377 939 224 865 b 62 463 85 641 62 556 b 96 282 62 400 73 340 b 212 115 123 217 161 161 b 593 -16 306 27 433 -16 b 1054 209 807 -16 960 59 b 1126 457 1102 286 1126 368 b 976 811 1126 602 1076 720 b 592 942 882 899 753 942 m 593 785 b 815 707 682 785 756 758 b 920 459 885 646 920 564 b 895 334 920 416 911 374 b 815 220 877 289 850 251 b 594 141 757 168 683 141 b 372 220 505 141 431 168 b 268 463 302 281 268 363 b 372 707 268 564 302 645 b 593 785 431 759 505 785 m 458 1181 b 396 1154 433 1181 413 1171 b 371 1093 379 1137 371 1117 b 397 1030 371 1067 380 1047 b 459 1004 414 1013 435 1004 b 522 1030 484 1004 505 1013 b 548 1090 539 1047 548 1067 b 522 1156 548 1116 539 1138 b 458 1181 505 1173 484 1181 m 728 1181 b 665 1155 703 1181 682 1172 b 640 1093 648 1138 640 1117 b 665 1030 640 1069 648 1048 b 726 1004 682 1013 703 1004 b 791 1030 753 1004 774 1013 b 817 1095 808 1047 817 1069 b 791 1156 817 1118 808 1138 b 728 1181 774 1173 753 1181 "},"Ü":{"ha":1133,"x_min":0,"x_max":0,"o":"m 1025 854 b 1069 904 1025 882 1036 895 l 1069 926 l 796 926 l 796 904 b 840 854 829 895 840 882 l 840 393 b 831 274 840 339 837 300 b 798 210 825 249 814 227 b 575 141 755 164 680 141 b 353 210 470 141 396 164 b 319 274 336 227 326 249 b 311 393 313 300 311 339 l 311 854 b 355 904 311 882 322 896 l 355 926 l 65 926 l 65 904 b 109 854 98 895 109 882 l 109 336 b 134 168 109 271 117 214 b 229 55 152 120 184 83 b 568 -16 307 7 420 -16 b 971 115 772 -16 906 28 b 1025 336 1007 164 1025 237 l 1025 854 m 435 1181 b 374 1154 411 1181 391 1171 b 349 1093 357 1137 349 1117 b 374 1030 349 1067 357 1047 b 437 1004 392 1013 413 1004 b 500 1030 462 1004 483 1013 b 526 1090 517 1047 526 1067 b 500 1156 526 1116 517 1138 b 435 1181 483 1173 462 1181 m 706 1181 b 643 1155 681 1181 660 1172 b 618 1093 626 1138 618 1117 b 643 1030 618 1069 626 1048 b 704 1004 660 1013 680 1004 b 769 1030 730 1004 752 1013 b 795 1095 786 1047 795 1069 b 769 1156 795 1118 786 1138 b 706 1181 752 1173 731 1181 "},"á":{"ha":964,"x_min":0,"x_max":0,"o":""},"à":{"ha":964,"x_min":0,"x_max":0,"o":""},"â":{"ha":964,"x_min":0,"x_max":0,"o":""},"ä":{"ha":1002,"x_min":0,"x_max":0,"o":"m 478 127 b 315 174 421 127 367 142 b 230 292 264 205 236 245 l 772 293 l 772 408 l 47 408 b 49 356 47 391 47 373 b 60 260 51 326 54 290 b 156 90 75 195 117 119 b 503 -16 241 19 357 -16 b 810 73 629 -16 732 14 b 911 193 852 105 886 145 b 958 376 942 250 958 311 b 874 614 958 465 930 545 b 492 776 788 722 661 776 b 238 727 418 776 333 760 b 172 708 201 714 178 708 b 145 719 165 708 155 711 l 129 710 l 219 519 l 235 527 l 235 531 b 286 583 235 548 252 565 b 486 632 348 616 415 632 b 688 565 568 632 636 610 b 772 375 744 518 772 454 b 696 196 772 300 747 241 b 478 127 644 151 572 127 "},"ã":{"ha":964,"x_min":0,"x_max":0,"o":""},"å":{"ha":964,"x_min":0,"x_max":0,"o":""},"ç":{"ha":968,"x_min":0,"x_max":0,"o":""},"é":{"ha":891,"x_min":0,"x_max":0,"o":""},"è":{"ha":891,"x_min":0,"x_max":0,"o":""},"ê":{"ha":891,"x_min":0,"x_max":0,"o":""},"ë":{"ha":891,"x_min":0,"x_max":0,"o":""},"í":{"ha":402,"x_min":0,"x_max":0,"o":""},"ì":{"ha":402,"x_min":0,"x_max":0,"o":"m 292 690 b 336 741 292 718 303 732 l 336 760 l 67 760 l 67 741 b 111 690 100 730 111 718 l 111 69 b 67 19 111 41 99 27 l 67 0 l 336 0 l 336 18 b 292 69 303 28 292 41 l 292 690 m 12 1021 b 52 1003 29 1021 43 1015 l 148 885 b 152 874 151 882 152 878 b 138 863 152 867 147 863 l 135 863 l 135 845 l 282 845 l 282 863 b 246 888 260 863 254 868 l 201 998 b 199 1008 199 1002 199 1006 b 218 1021 199 1016 205 1020 l 218 1040 l 12 1040 "},"î":{"ha":401,"x_min":0,"x_max":0,"o":"m 292 690 b 336 741 292 718 303 732 l 336 760 l 67 760 l 67 741 b 111 690 100 730 111 718 l 111 69 b 67 19 111 41 99 27 l 67 0 l 336 0 l 336 18 b 292 69 304 27 292 41 l 292 690 m 150 863 b 130 875 137 864 130 868 b 136 887 130 878 132 882 l 190 964 l 237 889 b 243 882 238 888 240 886 b 248 873 247 879 248 876 b 227 863 249 868 241 865 l 227 845 l 417 845 l 417 863 b 386 877 404 863 393 868 l 298 990 b 288 1009 291 999 288 1006 b 308 1021 288 1016 294 1020 l 308 1040 l 94 1040 l 94 1021 b 117 1010 109 1021 117 1017 b 109 993 117 1005 114 1000 l 32 892 b -15 863 15 869 7 864 l -15 845 l 150 845 "},"ï":{"ha":402,"x_min":0,"x_max":0,"o":"m 292 690 b 335 741 292 718 302 732 l 335 760 l 66 760 l 66 741 b 110 690 99 730 110 718 l 110 69 b 66 19 110 41 98 27 l 66 0 l 335 0 l 335 18 b 292 69 302 28 292 41 l 292 690 m 89 1024 b 27 997 64 1023 44 1014 b 2 935 10 980 2 960 b 28 873 2 910 11 890 b 90 847 45 856 66 847 b 153 873 115 847 136 856 b 179 934 170 890 179 910 b 153 998 179 959 170 981 b 89 1024 136 1015 115 1024 m 313 1024 b 250 998 288 1023 267 1015 b 225 936 233 981 225 960 b 250 873 225 911 233 890 b 311 847 267 856 288 847 b 376 873 338 847 359 856 b 402 937 393 890 402 911 b 376 998 402 960 393 981 b 313 1024 359 1015 338 1024 "},"ñ":{"ha":1033,"x_min":0,"x_max":0,"o":""},"ó":{"ha":990,"x_min":0,"x_max":0,"o":""},"ò":{"ha":990,"x_min":0,"x_max":0,"o":""},"ô":{"ha":990,"x_min":0,"x_max":0,"o":""},"ö":{"ha":990,"x_min":0,"x_max":0,"o":""},"õ":{"ha":990,"x_min":0,"x_max":0,"o":""},"ú":{"ha":959,"x_min":0,"x_max":0,"o":""},"ù":{"ha":959,"x_min":0,"x_max":0,"o":""},"û":{"ha":959,"x_min":0,"x_max":0,"o":""},"ü":{"ha":959,"x_min":0,"x_max":0,"o":""},"†":{"ha":749,"x_min":0,"x_max":0,"o":"m 462 947 b 505 997 465 979 473 988 l 505 1019 l 244 1019 l 244 997 b 288 947 277 988 284 980 l 315 728 l 155 728 b 106 736 131 728 115 731 b 87 772 99 741 92 753 l 65 772 l 65 557 l 87 557 b 136 601 96 590 109 601 l 315 601 l 288 -22 b 244 -71 287 -51 277 -60 l 244 -93 l 505 -93 l 505 -71 b 462 -22 472 -61 463 -52 l 434 601 l 613 601 b 663 557 641 601 654 590 l 684 557 l 684 772 l 663 772 b 613 728 654 739 641 728 l 434 728 "},"°":{"ha":641,"x_min":0,"x_max":0,"o":"m 321 952 b 176 899 266 951 218 933 b 102 732 130 860 102 795 b 158 586 102 676 121 627 b 320 515 201 538 256 515 b 473 576 379 515 430 535 b 538 731 517 619 538 671 b 480 882 538 791 519 841 b 321 952 436 929 383 952 m 319 873 b 418 829 357 872 391 858 b 456 730 444 802 456 769 b 415 635 456 694 443 662 b 319 594 388 608 356 594 b 217 642 278 594 243 610 b 184 733 195 669 184 699 b 229 836 184 773 199 807 b 319 873 254 861 284 873 "},"¢":{"ha":991,"x_min":0,"x_max":0,"o":"m 479 31 b 435 -20 479 2 468 -9 l 435 -38 l 621 -38 l 621 -20 b 577 31 588 -11 577 2 l 577 71 b 711 95 629 75 674 83 b 831 149 747 106 787 124 b 912 191 879 177 906 191 b 939 179 920 191 928 186 l 954 191 l 840 357 l 825 346 b 827 327 826 334 827 328 b 752 260 827 308 802 286 b 577 213 699 233 640 218 l 577 718 b 682 699 618 714 653 708 b 785 652 711 690 745 674 b 826 599 812 636 826 618 b 825 585 826 595 825 591 l 840 573 l 954 739 l 939 751 b 913 740 928 744 919 740 b 890 747 907 740 899 743 b 713 835 813 791 754 821 b 577 859 673 849 628 857 l 577 895 b 621 945 577 924 588 935 l 621 964 l 435 964 l 435 945 b 479 895 468 937 479 924 l 479 859 b 179 727 349 848 249 804 b 80 465 113 654 80 568 b 139 256 80 389 100 319 b 285 123 175 198 224 153 b 479 71 341 94 406 77 m 479 221 b 358 277 429 234 389 253 b 267 465 298 326 267 389 b 358 653 267 541 298 604 b 479 709 389 677 429 696 l 479 221 "},"£":{"ha":991,"x_min":0,"x_max":0,"o":"m 172 546 b 122 589 144 546 131 557 l 100 589 l 100 370 l 122 370 b 172 414 131 402 144 414 l 227 414 b 230 340 229 383 230 359 b 201 209 230 284 220 241 b 96 121 182 178 147 149 l 161 -26 b 403 29 233 11 313 29 b 497 22 441 29 472 27 b 623 1 567 10 609 3 b 673 -2 638 -1 655 -2 b 759 12 705 -2 733 3 b 846 58 785 20 814 36 b 922 97 885 84 910 97 b 947 89 928 97 937 94 l 960 104 l 764 254 l 749 239 b 764 211 759 231 764 221 b 736 170 764 195 755 182 b 678 151 719 157 699 151 b 596 166 663 151 635 156 b 476 184 548 178 508 184 b 350 163 439 184 397 177 b 410 243 380 193 400 219 b 425 340 420 267 425 299 b 420 414 425 359 424 383 l 560 414 b 610 370 588 414 601 402 l 631 370 l 631 589 l 610 589 b 560 546 601 557 588 546 l 406 546 b 399 648 401 598 399 632 b 582 785 399 734 465 785 b 731 744 642 785 691 771 b 774 690 760 724 774 706 b 762 667 774 680 770 673 l 775 650 l 973 793 l 960 810 b 940 803 952 805 945 803 b 883 829 926 803 907 812 b 780 897 841 861 806 884 b 564 942 718 927 646 942 b 270 842 444 942 336 905 b 199 665 223 797 199 738 b 210 546 199 640 203 600 "},"§":{"ha":932,"x_min":0,"x_max":0,"o":"m 771 310 b 868 489 833 343 868 408 b 765 666 868 571 833 630 b 531 724 711 694 633 713 l 401 739 b 286 763 346 745 308 753 b 254 809 265 773 254 789 b 311 879 254 838 273 861 b 456 904 345 896 393 904 b 570 896 503 904 541 901 b 666 866 601 890 633 880 b 718 824 701 851 718 837 b 713 802 718 819 716 812 l 729 794 l 822 983 l 806 989 b 780 972 794 978 785 972 b 743 980 770 972 758 975 b 586 1025 682 1001 630 1016 b 448 1038 542 1034 496 1038 b 202 972 343 1038 261 1016 b 114 794 143 930 114 870 b 150 683 114 750 126 713 b 226 627 165 663 191 645 b 165 584 198 610 178 596 b 113 446 131 550 113 504 b 187 300 113 386 141 330 b 389 239 233 269 300 249 l 523 226 b 677 195 597 218 649 208 b 721 139 707 182 721 164 b 671 62 721 110 705 85 b 495 22 631 36 572 22 b 243 81 389 22 305 42 b 192 139 209 103 192 122 b 198 163 192 144 194 153 l 183 172 l 65 -8 l 79 -17 b 109 -1 94 -7 103 -1 b 133 -10 115 -1 123 -4 b 309 -88 195 -47 254 -73 b 496 -111 363 -104 426 -111 b 793 -28 633 -111 732 -83 b 868 144 843 18 868 75 b 848 236 868 183 861 214 b 771 310 836 258 810 283 m 401 391 b 298 411 346 399 311 406 b 254 468 269 422 254 441 b 381 588 254 515 296 555 l 559 568 b 686 538 621 560 663 551 b 720 479 709 526 720 506 b 686 408 720 452 709 428 b 597 363 670 395 641 380 "},"•":{"ha":926,"x_min":0,"x_max":0,"o":"m 467 663 b 329 607 413 663 367 644 b 272 470 291 570 272 525 b 329 334 272 417 291 372 b 465 278 366 297 411 278 b 600 334 518 278 563 297 b 657 471 638 372 657 417 b 600 607 657 524 638 570 b 467 663 563 644 518 663 "},"¶":{"ha":886,"x_min":0,"x_max":0,"o":"m 435 -31 b 391 -90 435 -69 427 -81 l 391 -111 l 564 -111 l 564 842 l 676 842 l 676 -111 l 849 -111 l 849 -90 b 806 -31 814 -81 806 -69 l 806 846 b 849 904 806 884 814 895 l 849 926 l 323 926 b 240 914 313 926 286 922 b 75 821 167 903 118 875 b 28 685 43 782 28 736 b 138 481 28 600 64 532 b 220 446 159 467 186 456 b 312 431 254 435 284 431 l 435 431 "},"ß":{"ha":1710,"x_min":0,"x_max":0,"o":"m 781 700 b 753 685 769 690 760 685 b 714 698 745 685 732 689 b 553 758 652 727 598 747 b 408 776 508 770 460 776 b 166 716 312 776 231 756 b 59 526 95 672 59 609 b 151 349 59 452 94 385 b 231 317 174 335 200 325 b 362 300 261 310 304 304 l 469 291 b 586 273 525 286 564 280 b 635 215 618 262 635 243 b 564 140 635 180 611 156 b 435 121 526 127 484 121 b 271 143 381 121 326 129 b 153 195 215 158 176 176 b 140 225 144 203 140 214 l 140 231 l 123 237 l 45 52 l 62 45 b 87 61 69 56 78 61 b 105 56 92 61 98 60 b 437 -16 212 8 322 -16 b 707 48 550 -16 640 5 b 811 231 777 93 811 154 b 778 346 811 274 800 312 b 711 411 760 373 738 395 b 497 465 662 440 591 458 l 390 473 b 254 495 323 479 277 486 b 218 543 230 505 218 520 b 292 619 218 576 243 602 b 408 637 326 631 364 637 b 561 615 460 637 511 630 b 675 558 611 600 649 581 b 689 523 684 549 689 538 l 705 514 l 797 691 m 1636 700 b 1608 685 1624 690 1615 685 b 1569 698 1600 685 1588 689 b 1408 758 1507 727 1453 747 b 1263 776 1363 770 1315 776 b 1021 716 1167 776 1086 756 b 914 526 950 672 914 609 b 1006 349 914 452 949 385 b 1086 317 1029 335 1055 325 b 1217 300 1116 310 1160 304 l 1324 291 b 1441 273 1380 286 1419 280 b 1490 215 1474 262 1490 243 b 1419 140 1490 180 1466 156 b 1291 121 1381 127 1339 121 b 1126 143 1236 121 1181 129 b 1008 195 1070 158 1031 176 b 995 225 1000 203 995 214 b 996 231 995 226 995 228 l 978 237 l 900 52 l 917 45 b 942 61 924 56 933 61 b 961 56 947 61 954 60 b 1293 -16 1067 8 1178 -16 b 1563 48 1406 -16 1495 5 b 1666 231 1632 93 1666 154 b 1633 346 1666 274 1655 312 b 1567 411 1615 373 1593 395 b 1352 465 1517 440 1446 458 l 1246 473 b 1109 495 1178 479 1133 486 b 1074 543 1085 505 1074 520 b 1147 619 1074 576 1098 602 b 1263 637 1181 631 1219 637 b 1404 618 1312 637 1358 631 b 1518 568 1449 606 1487 589 b 1545 530 1536 555 1545 543 b 1544 523 1545 528 1545 526 l 1560 514 l 1653 691 "},"®":{"ha":1233,"x_min":0,"x_max":0,"o":"m 615 942 b 368 900 520 941 438 926 b 138 717 269 861 192 800 b 63 463 88 640 63 555 b 98 286 63 401 75 342 b 224 112 126 218 168 160 b 616 -16 323 26 454 -16 b 865 26 709 -16 792 -2 b 1095 210 964 63 1040 125 b 1171 457 1145 286 1171 369 b 1136 640 1171 522 1159 583 b 1010 814 1108 708 1066 766 b 615 942 910 899 779 942 m 615 862 b 813 832 689 861 755 852 b 960 741 865 814 915 784 b 1076 457 1037 669 1076 574 b 960 184 1076 349 1037 258 b 616 64 877 104 762 64 b 273 184 471 64 357 104 b 158 463 197 258 158 351 b 273 741 158 574 197 667 b 615 862 357 822 471 862 m 621 408 l 729 249 b 747 217 741 231 747 220 b 727 207 747 212 741 208 l 727 185 l 934 185 l 934 207 b 901 218 920 208 909 211 b 860 269 892 225 879 242 l 758 413 b 903 573 855 429 903 481 b 839 707 903 634 882 679 b 673 741 803 732 758 741 l 328 741 l 328 720 b 353 694 349 715 353 710 l 353 231 b 328 206 353 217 347 211 l 328 185 l 507 185 l 507 206 b 481 231 488 211 481 217 l 481 408 m 481 641 l 661 641 b 747 629 704 641 733 637 b 775 574 766 619 775 601 b 747 519 775 548 766 529 b 661 507 733 511 704 507 l 481 507 "},"©":{"ha":1226,"x_min":0,"x_max":0,"o":"m 615 942 b 368 900 520 941 438 926 b 138 717 269 861 192 800 b 63 463 88 640 63 555 b 98 286 63 401 75 342 b 224 112 126 218 168 160 b 616 -16 323 26 454 -16 b 865 26 709 -16 792 -2 b 1095 210 964 63 1040 125 b 1171 457 1145 286 1171 369 b 1136 640 1171 522 1159 583 b 1010 814 1108 708 1066 766 b 615 942 910 899 779 942 m 615 862 b 813 832 689 861 755 852 b 960 741 865 814 915 784 b 1076 457 1037 669 1076 574 b 960 184 1076 349 1037 258 b 616 64 877 104 762 64 b 273 184 471 64 357 104 b 158 463 197 258 158 351 b 273 741 158 574 197 667 b 615 862 357 822 471 862 m 824 372 b 825 359 825 366 825 362 b 782 317 825 347 811 334 b 635 278 735 291 686 278 b 481 328 571 278 520 295 b 424 463 443 362 424 407 b 488 603 424 521 446 567 b 635 648 524 633 573 648 b 782 609 686 648 735 635 b 825 568 811 593 825 579 b 824 554 825 564 825 560 l 841 543 l 922 664 l 905 676 b 887 665 897 669 890 665 b 849 683 883 665 870 671 l 836 690 b 728 737 796 713 760 728 b 619 751 696 746 661 751 b 404 689 532 751 460 730 b 293 463 330 634 293 559 b 404 237 293 368 330 292 b 619 176 460 196 532 176 b 733 190 663 176 701 180 b 849 244 766 200 804 218 b 887 262 870 256 883 262 b 905 250 891 262 897 258 l 922 262 l 841 384 "},"™":{"ha":1413,"x_min":0,"x_max":0,"o":"m 532 831 b 558 807 547 831 553 826 l 580 807 l 580 950 l 558 950 b 532 926 553 930 547 926 l 50 926 b 23 950 34 926 28 930 l 1 950 l 1 807 l 23 807 b 50 831 28 826 34 831 l 224 831 l 224 442 b 197 418 224 429 218 424 l 197 398 l 385 398 l 385 418 b 358 442 363 424 358 429 l 358 831 m 1204 745 l 1204 442 b 1178 418 1204 429 1199 424 l 1178 398 l 1366 398 l 1366 418 b 1339 442 1344 424 1339 429 l 1339 882 b 1366 905 1339 895 1344 901 l 1366 926 l 1140 926 l 1140 905 b 1161 891 1154 904 1161 900 b 1151 868 1161 886 1158 879 l 997 618 l 844 873 b 839 888 841 879 839 884 b 859 905 839 897 846 903 l 859 926 l 628 926 l 628 905 b 655 882 650 901 655 895 l 655 442 b 628 418 655 429 650 424 l 628 398 l 806 398 l 806 418 b 779 442 785 424 779 429 l 779 745 l 986 401 "},"´":{"ha":694,"x_min":0,"x_max":0,"o":"m 321 1040 l 321 1021 b 340 1008 334 1020 340 1016 b 338 998 340 1006 340 1002 l 293 888 b 257 863 285 868 279 863 l 257 845 l 404 845 l 404 863 l 401 863 b 387 874 392 863 387 867 b 391 885 387 878 389 882 l 488 1003 b 528 1021 496 1015 510 1021 l 528 1040 "},"¨":{"ha":694,"x_min":0,"x_max":0,"o":"m 211 1024 b 149 997 186 1023 166 1014 b 124 935 132 980 124 960 b 150 873 124 910 133 890 b 212 847 168 856 189 847 b 275 873 237 847 258 856 b 301 934 292 890 301 910 b 275 998 301 959 292 981 b 211 1024 258 1015 237 1024 m 481 1024 b 418 998 456 1023 435 1015 b 393 936 401 981 393 960 b 418 873 393 911 401 890 b 480 847 435 856 456 847 b 545 873 506 847 528 856 b 570 937 562 890 570 911 b 545 998 570 960 562 981 b 481 1024 528 1015 507 1024 "},"≠":{"ha":1065,"x_min":0,"x_max":0,"o":"m 224 687 b 179 730 199 687 186 698 l 159 730 l 159 511 l 178 511 b 224 554 187 543 197 554 l 501 554 l 416 372 l 224 372 b 179 415 199 372 186 383 l 159 415 l 159 195 l 178 195 b 224 239 187 229 199 239 l 355 239 l 318 161 b 282 136 311 144 298 136 b 260 139 276 136 269 137 l 251 121 l 450 28 l 459 45 b 434 83 442 59 434 71 b 439 105 434 91 435 98 l 501 239 l 841 239 b 886 195 866 239 878 229 l 906 195 l 906 415 l 886 415 b 841 372 878 382 866 372 l 564 372 l 648 554 l 841 554 b 886 511 866 554 878 543 l 906 511 l 906 730 l 886 730 b 841 687 878 698 866 687 l 710 687 l 747 764 b 783 790 754 781 766 790 b 805 787 789 790 796 789 l 814 806 l 614 898 l 606 880 b 631 843 623 866 631 854 b 626 821 631 835 629 827 l 564 687 "},"Æ":{"ha":1615,"x_min":0,"x_max":0,"o":"m 687 71 b 644 22 687 43 676 31 l 644 0 l 1484 0 b 1533 -43 1512 0 1525 -11 l 1555 -43 l 1555 196 l 1533 196 b 1484 153 1525 163 1512 153 l 889 153 l 889 406 l 1264 406 b 1313 363 1291 406 1304 395 l 1335 363 l 1335 597 l 1313 597 b 1264 553 1304 564 1291 553 l 889 553 l 889 773 l 1468 773 b 1517 730 1495 773 1508 762 l 1539 730 l 1539 970 l 1517 970 b 1468 926 1508 937 1495 926 l 455 926 l 455 904 b 496 863 482 895 496 882 b 473 805 496 850 488 830 l 64 94 b 26 41 48 67 36 50 b -18 22 16 32 1 26 l -18 0 l 302 0 l 302 22 b 262 60 275 29 262 41 b 279 106 262 71 268 86 l 355 236 l 687 236 m 429 363 l 658 773 l 687 773 l 687 363 "},"Ø":{"ha":1188,"x_min":0,"x_max":0,"o":"m 844 992 b 883 957 870 989 883 977 b 870 925 883 947 879 937 l 848 896 b 725 932 802 913 761 926 b 594 942 689 939 645 942 b 134 717 380 942 227 867 b 62 463 85 640 62 556 b 239 91 62 313 121 189 l 209 51 b 134 -37 176 7 151 -22 b 73 -66 117 -52 96 -62 l 73 -93 l 345 -93 l 345 -66 b 303 -38 317 -66 303 -56 b 320 -2 303 -29 309 -18 l 343 28 b 464 -6 388 12 428 0 b 594 -16 500 -13 543 -16 b 1054 210 807 -16 960 59 b 1126 463 1102 286 1126 370 b 951 833 1126 613 1067 736 l 985 878 b 1062 970 1023 928 1049 958 b 1115 992 1075 981 1093 989 l 1115 1019 l 844 1019 m 838 684 b 920 463 892 618 920 545 b 815 220 920 363 885 281 b 593 141 757 168 683 141 b 450 170 544 141 496 151 m 352 240 b 268 464 296 304 268 379 b 372 707 268 564 302 644 b 595 785 431 759 505 785 b 741 755 644 785 693 775 "},"∞":{"ha":926,"x_min":0,"x_max":0,"o":"m 466 387 b 686 254 536 294 602 254 b 842 316 749 254 801 275 b 901 472 882 356 901 408 b 851 618 901 530 884 579 b 686 690 810 666 754 690 b 460 558 602 690 526 646 b 239 690 393 646 320 690 b 85 629 178 690 126 669 b 24 473 45 589 24 537 b 81 320 24 411 43 360 b 240 254 122 276 175 254 b 406 320 302 254 357 276 b 466 387 424 337 444 359 m 527 472 b 540 490 527 473 531 478 b 559 515 549 501 555 510 b 667 574 593 554 629 574 b 739 545 696 574 720 564 b 768 472 758 525 768 501 b 739 399 768 443 758 418 b 668 370 720 379 696 370 b 527 472 619 370 572 404 m 398 471 b 385 453 399 471 394 465 b 366 428 376 441 370 433 b 258 370 333 389 297 370 b 158 471 199 370 158 412 b 256 574 158 531 199 574 b 398 471 305 574 353 540 "},"±":{"ha":1065,"x_min":0,"x_max":0,"o":"m 466 201 b 422 156 466 176 455 163 l 422 136 l 642 136 l 642 155 b 599 201 610 163 599 176 l 599 397 l 841 397 b 886 353 866 397 878 386 l 906 353 l 906 573 l 886 573 b 841 530 878 541 866 530 l 599 530 l 599 771 b 642 817 599 796 610 808 l 642 836 l 422 836 l 422 816 b 466 771 455 808 466 796 l 466 530 l 224 530 b 179 573 199 530 186 541 l 159 573 l 159 353 l 178 353 b 224 397 187 386 199 397 l 466 397 m 178 -129 b 224 -85 187 -96 197 -85 l 841 -85 b 886 -129 866 -85 878 -96 l 906 -129 l 906 91 l 886 91 b 841 48 878 58 866 48 l 224 48 b 179 91 199 48 186 59 l 159 91 l 159 -129 "},"≤":{"ha":694,"x_min":0,"x_max":0,"o":"m 46 657 l 46 492 l 648 262 l 648 446 l 260 574 l 648 703 l 648 886 m 46 224 l 46 52 l 648 52 l 648 224 "},"≥":{"ha":694,"x_min":0,"x_max":0,"o":"m 46 703 l 433 574 l 46 446 l 46 262 l 648 492 l 648 657 l 46 886 m 46 52 l 648 52 l 648 224 l 46 224 "},"¥":{"ha":991,"x_min":0,"x_max":0,"o":"m 395 71 b 350 22 395 43 383 31 l 350 0 l 641 0 l 641 22 b 597 71 608 31 597 43 l 597 274 l 793 274 b 842 220 821 274 834 260 l 864 220 l 864 451 l 842 451 b 793 408 834 419 821 408 l 610 408 l 690 568 l 849 568 b 898 514 876 568 890 554 l 920 514 l 920 745 l 898 745 b 849 701 890 713 876 701 l 755 701 l 821 808 b 935 904 859 869 894 899 l 935 926 l 577 926 l 577 904 b 623 863 608 899 623 885 b 619 847 623 857 621 852 b 598 806 617 842 610 829 l 498 560 l 401 806 b 379 848 389 829 381 843 b 376 863 377 852 376 858 b 422 904 376 885 391 899 l 422 926 l 56 926 l 56 904 b 169 808 96 899 131 869 l 236 701 l 142 701 b 92 745 114 701 101 712 l 71 745 l 71 514 l 92 514 b 142 568 101 554 114 568 l 301 568 l 382 408 l 197 408 b 148 451 170 408 157 418 l 126 451 l 126 220 l 148 220 b 197 274 157 260 170 274 l 395 274 "},"µ":{"ha":667,"x_min":0,"x_max":0,"o":"m 700 75 b 662 67 686 70 673 67 b 615 90 638 67 623 75 b 604 183 608 105 604 136 l 604 635 l 423 635 l 423 139 b 312 64 380 84 350 64 b 250 98 288 64 261 79 b 229 236 235 122 229 168 l 229 635 l 46 635 l 46 337 b 3 -102 45 177 31 31 b -9 -193 -5 -140 -9 -171 b 81 -273 -9 -241 26 -273 b 149 -243 109 -273 132 -262 b 167 -197 161 -230 167 -214 b 151 -122 167 -178 161 -153 b 117 -8 135 -74 123 -36 b 109 74 111 20 109 47 b 109 95 109 77 109 84 b 169 5 127 52 146 22 b 260 -21 191 -12 221 -21 b 376 22 302 -21 341 -7 b 435 81 389 33 409 52 b 466 7 448 43 458 18 b 515 -17 479 -9 495 -17 b 523 -16 517 -17 519 -16 l 700 47 l 700 75 "},"∂":{"ha":694,"x_min":0,"x_max":0,"o":"m 91 777 b 375 678 202 766 297 732 b 432 628 401 659 420 642 b 479 545 444 614 459 586 b 487 530 480 543 483 537 b 472 541 480 534 475 538 b 429 572 447 559 433 570 b 319 599 401 590 365 599 b 80 479 220 599 132 555 b 26 305 44 427 26 370 b 106 87 26 222 53 149 b 339 -16 164 19 242 -16 b 584 90 441 -16 522 20 b 668 357 640 155 668 244 b 549 721 668 505 628 627 b 338 870 491 789 421 838 b 113 922 274 895 199 912 l 91 777 m 353 460 b 457 414 395 460 430 444 b 498 300 485 384 498 346 b 456 181 498 253 484 213 b 350 133 427 149 392 133 b 244 177 309 133 273 148 b 196 296 212 210 196 250 b 252 423 196 349 215 391 b 353 460 280 448 314 460 "},"∑":{"ha":926,"x_min":0,"x_max":0,"o":"m 47 1042 l 47 845 l 372 369 l 47 -149 l 47 -347 l 871 -347 l 871 7 l 694 7 l 682 -176 l 257 -176 l 593 370 l 256 870 l 669 870 l 690 692 l 858 692 l 858 1042 "},"∏":{"ha":926,"x_min":0,"x_max":0,"o":"m 28 892 l 130 892 l 130 -197 l 28 -197 l 28 -347 l 386 -347 l 386 -197 l 296 -197 l 296 892 l 631 892 l 631 -197 l 538 -197 l 538 -347 l 898 -347 l 898 -197 l 798 -197 l 798 892 l 898 892 l 898 1042 l 28 1042 "},"π":{"ha":849,"x_min":0,"x_max":0,"o":"m 303 0 l 303 528 l 547 528 l 547 0 l 722 0 l 722 528 l 822 528 l 822 666 l 28 666 l 28 528 l 129 528 l 129 0 "},"∫":{"ha":694,"x_min":0,"x_max":0,"o":"m 75 -333 b 91 -336 79 -334 85 -335 b 159 -346 114 -342 137 -346 b 351 -298 243 -346 307 -330 b 435 -180 395 -267 423 -227 b 448 5 444 -146 448 -84 l 448 732 b 460 828 448 781 452 812 b 528 865 472 852 495 865 b 588 851 545 865 566 860 l 621 1027 b 507 1042 571 1037 533 1042 b 361 1008 448 1042 399 1031 b 262 881 309 977 275 935 b 250 800 256 859 252 831 b 248 637 248 770 248 715 l 248 23 b 245 -92 247 -41 246 -79 b 239 -125 245 -104 243 -115 b 165 -170 229 -153 200 -170 b 107 -157 150 -170 131 -165 l 75 -333 "},"ª":{"ha":709,"x_min":0,"x_max":0,"o":"m 186 827 l 206 839 b 200 852 202 847 200 852 b 243 872 200 859 214 866 b 330 882 272 878 300 882 b 463 802 410 882 463 850 l 463 767 b 408 805 444 785 426 798 b 340 815 390 812 368 815 b 196 776 284 815 236 802 b 138 677 157 751 138 718 b 196 578 138 636 157 604 b 337 539 237 552 284 539 b 463 593 394 539 425 552 l 463 550 l 578 550 l 578 568 b 545 593 551 572 545 577 l 545 797 b 486 903 545 841 526 876 b 327 942 446 929 393 942 b 172 914 262 942 211 932 b 163 911 168 912 165 911 b 151 919 160 911 156 914 l 132 907 m 348 750 b 464 674 418 749 464 718 b 430 624 464 654 452 637 b 347 604 408 611 380 604 b 256 625 311 604 281 611 b 218 674 231 638 218 654 b 247 724 218 694 228 711 b 348 750 272 741 305 750 m 559 523 b 523 479 553 490 543 479 l 182 479 b 146 523 163 479 154 490 l 131 523 l 131 348 l 146 348 b 182 391 154 381 163 391 l 523 391 b 559 348 544 391 551 381 l 575 348 l 575 523 "},"º":{"ha":709,"x_min":0,"x_max":0,"o":"m 354 943 b 197 888 289 942 237 924 b 138 750 157 853 138 807 b 208 602 138 687 161 637 b 355 557 247 572 296 557 b 500 602 413 557 462 572 b 571 747 547 637 571 686 b 500 898 571 811 547 862 b 354 943 461 928 412 943 m 354 867 b 475 748 427 866 475 819 b 441 665 475 715 464 688 b 355 633 418 644 389 633 b 267 665 319 633 290 644 b 233 750 245 688 233 715 b 267 833 233 784 245 812 b 354 867 290 856 319 867 m 560 523 b 524 479 554 490 544 479 l 184 479 b 148 523 164 479 155 490 l 132 523 l 132 348 l 148 348 b 184 391 155 381 164 391 l 524 391 b 560 348 545 391 553 381 l 576 348 l 576 523 "},"Ω":{"ha":926,"x_min":0,"x_max":0,"o":"m 410 0 l 410 150 b 223 477 286 215 223 326 b 292 699 223 566 246 640 b 465 785 338 756 395 785 b 633 699 532 785 589 756 b 703 478 680 638 703 564 b 634 252 703 394 680 319 b 515 150 606 211 566 177 l 515 0 l 887 0 l 887 162 l 685 162 b 891 511 827 247 891 356 b 763 827 891 637 848 743 b 461 949 682 908 581 949 b 165 829 345 949 246 909 b 34 510 78 743 34 636 b 110 274 34 416 59 337 b 240 162 144 231 187 194 l 38 162 l 38 0 "},"æ":{"ha":1417,"x_min":0,"x_max":0,"o":"m 646 69 b 603 19 646 42 631 25 l 603 0 l 1310 0 b 1360 -43 1338 0 1352 -12 l 1379 -43 l 1379 182 l 1360 182 b 1310 138 1352 149 1338 138 l 828 138 l 828 323 l 1114 323 b 1164 279 1143 323 1156 311 l 1183 279 l 1183 498 l 1164 498 b 1114 455 1156 467 1141 455 l 828 455 l 828 622 l 1289 622 b 1339 578 1318 622 1331 610 l 1358 578 l 1358 803 l 1340 803 b 1289 760 1331 770 1318 760 l 441 760 l 441 741 b 479 701 467 730 479 717 b 455 640 479 687 471 667 l 115 80 b 81 35 102 58 90 42 b 39 18 71 27 58 22 l 39 0 l 338 0 l 338 18 b 300 57 313 24 300 37 b 319 104 300 67 306 83 l 371 190 l 646 190 m 437 296 l 624 622 l 646 622 l 646 296 "},"ø":{"ha":990,"x_min":0,"x_max":0,"o":"m 680 826 b 720 787 703 821 720 804 b 709 755 720 777 716 766 l 697 739 b 496 776 631 764 564 776 b 195 684 375 776 274 745 b 50 379 98 609 50 507 b 116 159 50 294 72 220 b 204 68 137 130 166 100 l 176 29 b 116 -40 150 -5 130 -28 b 61 -68 102 -52 84 -62 l 61 -83 l 311 -83 l 311 -68 b 270 -31 283 -62 270 -50 b 286 4 270 -22 275 -11 l 297 18 b 494 -16 362 -5 428 -16 b 795 76 616 -16 716 14 b 940 379 892 150 940 251 b 783 692 940 515 888 620 l 815 736 b 878 811 844 777 865 802 b 929 826 890 821 907 826 l 929 842 l 680 842 m 686 557 b 755 380 732 508 755 449 b 686 203 755 309 732 250 b 493 127 637 153 573 127 b 389 147 460 127 425 134 m 303 203 b 235 380 258 253 235 312 b 303 557 235 451 258 510 b 500 633 353 608 418 633 b 604 612 537 633 572 626 "},"¿":{"ha":678,"x_min":0,"x_max":0,"o":"m 515 249 b 522 226 519 239 522 231 b 498 179 522 211 513 195 b 375 127 464 144 423 127 b 269 225 311 127 269 166 b 282 279 269 244 273 262 b 334 353 291 297 309 321 b 389 431 361 389 380 414 b 410 500 397 448 405 471 b 426 562 414 532 420 553 b 462 585 432 572 444 579 l 462 607 l 239 607 l 239 585 b 278 545 269 577 278 568 b 264 477 278 517 273 494 b 204 406 255 460 235 436 b 111 292 160 362 129 324 b 83 189 92 259 83 225 b 168 28 83 121 112 67 b 325 -16 210 -1 262 -16 b 432 1 363 -16 399 -11 b 546 60 465 12 503 33 b 604 88 574 79 594 88 b 627 81 610 88 617 85 l 633 78 l 650 90 l 534 261 m 339 942 b 260 909 309 941 282 930 b 228 831 239 888 228 862 b 260 752 228 800 239 774 b 339 720 281 730 308 720 b 418 752 370 720 396 730 b 450 830 439 774 450 800 b 418 909 450 861 439 887 b 339 942 396 931 370 942 "},"¡":{"ha":525,"x_min":0,"x_max":0,"o":"m 174 600 l 174 578 b 209 562 192 573 204 568 b 216 529 214 555 216 545 b 214 498 216 519 216 509 l 165 81 b 153 36 162 58 158 42 b 120 22 149 30 138 25 l 120 0 l 405 0 l 405 22 b 371 36 387 25 376 30 b 360 81 366 42 363 58 l 311 498 b 309 529 309 509 309 519 b 316 562 309 545 311 556 b 351 578 321 568 333 574 l 351 600 m 262 942 b 183 909 231 941 205 930 b 151 830 162 887 151 861 b 184 752 151 800 162 774 b 262 720 205 730 232 720 b 340 751 293 720 319 730 b 374 829 363 773 374 799 b 341 909 374 861 363 887 b 262 942 319 931 293 942 "},"¬":{"ha":694,"x_min":0,"x_max":0,"o":"m 648 0 l 648 401 l 46 401 l 46 229 l 456 229 l 456 0 "},"√":{"ha":926,"x_min":0,"x_max":0,"o":"m 551 1148 l 410 616 b 350 375 382 513 363 433 b 311 167 337 317 324 248 l 301 167 b 269 362 287 272 276 337 l 228 517 l 0 517 l 0 363 l 121 363 l 210 0 l 425 0 l 687 994 l 926 994 l 926 1148 "},"ƒ":{"ha":991,"x_min":0,"x_max":0,"o":"m 19 -45 b 50 -29 31 -35 41 -29 b 75 -41 55 -29 64 -33 b 224 -83 115 -69 165 -83 b 458 5 324 -83 402 -54 b 504 73 479 28 495 50 b 531 192 513 97 522 136 l 574 463 l 699 463 b 742 420 727 463 739 452 l 764 420 l 801 654 l 779 654 b 723 610 765 622 750 610 l 597 610 l 614 715 b 650 815 621 760 633 793 b 766 866 673 845 720 866 b 835 853 787 866 810 862 b 871 829 859 845 871 837 b 861 796 871 825 868 814 l 884 786 l 987 960 l 966 970 b 934 951 954 958 943 951 b 921 956 930 951 926 953 b 843 998 892 977 865 991 b 747 1008 821 1004 788 1008 b 503 920 635 1008 553 979 b 452 836 484 899 467 871 b 422 734 438 802 428 768 l 404 610 l 342 610 b 300 654 315 610 304 622 l 279 654 l 241 420 l 263 420 b 319 463 277 452 292 463 l 380 463 l 340 210 b 306 105 332 159 320 125 b 206 60 283 75 250 60 b 146 77 185 60 165 66 b 119 115 128 89 119 102 b 123 130 119 118 120 123 l 107 137 l 3 -37 "},"≈":{"ha":694,"x_min":0,"x_max":0,"o":"m 108 484 b 208 559 144 538 170 559 b 338 517 230 559 273 545 b 428 482 380 499 410 488 b 479 474 446 477 463 474 b 618 545 532 474 578 498 b 682 661 639 571 660 610 l 586 728 b 485 652 551 672 524 652 b 364 691 464 652 424 665 b 215 736 296 722 245 736 b 70 657 159 736 110 710 b 12 551 50 632 31 597 l 108 484 m 108 191 b 208 266 140 241 174 266 b 338 224 229 266 273 252 b 429 189 381 205 412 194 b 479 180 446 183 463 180 b 618 252 532 180 578 204 b 682 367 639 277 660 316 l 586 435 b 485 359 551 380 524 359 b 364 399 464 359 423 372 b 216 444 296 429 246 444 b 70 364 159 444 110 417 b 12 258 50 339 31 304 l 108 191 "},"∆":{"ha":895,"x_min":0,"x_max":0,"o":"m 884 0 l 543 926 l 350 926 l 11 0 m 448 728 l 642 162 l 249 162 "},"«":{"ha":676,"x_min":0,"x_max":0,"o":"m 457 667 l 326 393 l 457 120 l 574 120 l 441 393 l 574 667 m 215 667 l 83 393 l 215 120 l 332 120 l 199 393 l 332 667 "},"»":{"ha":676,"x_min":0,"x_max":0,"o":"m 235 393 l 102 120 l 219 120 l 351 393 l 219 667 l 102 667 m 477 393 l 344 120 l 460 120 l 593 393 l 460 667 l 344 667 "},"…":{"ha":1278,"x_min":0,"x_max":0,"o":"m 213 206 b 134 173 182 205 155 195 b 102 96 113 152 102 126 b 134 16 102 65 113 39 b 213 -16 156 -5 182 -16 b 291 16 243 -16 269 -5 b 324 94 313 38 324 64 b 292 174 324 125 313 152 b 213 206 271 195 244 206 m 639 206 b 559 173 608 205 581 195 b 528 96 538 152 528 126 b 560 16 528 65 538 39 b 639 -16 582 -5 608 -16 b 717 16 669 -16 695 -5 b 750 94 739 38 750 64 b 718 174 750 125 739 152 b 639 206 696 195 670 206 m 1065 206 b 985 173 1034 205 1007 195 b 954 96 964 152 954 126 b 986 16 954 65 964 39 b 1065 -16 1008 -5 1034 -16 b 1143 16 1095 -16 1121 -5 b 1176 94 1165 38 1176 64 b 1143 174 1176 125 1165 152 b 1065 206 1122 195 1096 206 "},"À":{"ha":1130,"x_min":0,"x_max":0,"o":"m 825 106 b 839 64 834 87 839 73 b 794 22 839 41 824 26 l 794 0 l 1135 0 l 1135 22 b 1089 43 1116 25 1101 33 b 1050 106 1078 55 1065 75 l 697 819 b 684 864 688 836 684 851 b 724 904 684 883 698 897 l 724 926 l 396 926 l 396 904 b 435 859 422 895 435 880 b 419 805 435 846 430 827 l 79 94 b 46 41 66 67 56 50 b 5 22 37 32 23 25 l 5 0 l 311 0 l 311 22 b 266 63 281 29 266 43 b 279 106 266 73 270 87 l 341 236 l 762 236 m 401 363 l 553 692 l 703 363 m 368 1179 b 408 1160 386 1178 399 1172 l 505 1042 b 509 1031 507 1039 509 1036 b 495 1021 509 1024 504 1021 l 492 1021 l 492 1002 l 639 1002 l 639 1021 b 603 1045 617 1021 611 1025 l 558 1156 b 555 1166 556 1160 555 1163 b 574 1179 555 1173 562 1177 l 574 1197 l 368 1197 "},"Ã":{"ha":1130,"x_min":0,"x_max":0,"o":"m 825 106 b 839 64 834 87 839 73 b 794 22 839 41 824 26 l 794 0 l 1135 0 l 1135 22 b 1089 43 1116 25 1101 33 b 1050 106 1078 55 1065 75 l 697 819 b 684 864 688 836 684 851 b 724 904 684 883 698 897 l 724 926 l 396 926 l 396 904 b 435 859 422 895 435 880 b 419 805 435 846 430 827 l 79 94 b 46 41 66 67 56 50 b 5 22 37 32 23 25 l 5 0 l 311 0 l 311 22 b 266 63 281 29 266 43 b 279 106 266 73 270 87 l 341 236 l 762 236 m 401 363 l 553 692 l 703 363 m 692 1176 b 704 1154 700 1167 704 1160 b 666 1120 704 1137 684 1120 b 631 1126 654 1120 643 1122 l 530 1166 b 486 1175 515 1173 500 1175 b 383 1121 445 1175 411 1157 b 357 1105 376 1111 367 1105 b 334 1111 353 1105 345 1107 l 325 1099 l 426 1006 l 438 1015 b 428 1036 431 1024 428 1031 b 467 1070 428 1052 449 1070 b 497 1065 477 1070 487 1068 l 597 1026 b 655 1015 618 1019 637 1015 b 751 1076 689 1015 721 1035 b 769 1088 758 1084 763 1088 b 794 1082 772 1088 781 1086 l 805 1095 l 707 1186 "},"Õ":{"ha":1188,"x_min":0,"x_max":0,"o":"m 592 942 b 133 718 377 939 224 865 b 62 463 85 641 62 556 b 96 282 62 400 73 340 b 212 115 123 217 161 161 b 593 -16 306 27 433 -16 b 1054 209 807 -16 960 59 b 1126 457 1102 286 1126 368 b 976 811 1126 602 1076 720 b 592 942 882 899 753 942 m 593 785 b 815 707 682 785 756 758 b 920 459 885 646 920 564 b 895 334 920 416 911 374 b 815 220 877 289 850 251 b 594 141 757 168 683 141 b 372 220 505 141 431 168 b 268 463 302 281 268 363 b 372 707 268 564 302 645 b 593 785 431 759 505 785 m 731 1176 b 743 1154 739 1167 743 1160 b 705 1120 743 1137 723 1120 b 670 1126 693 1120 682 1122 l 569 1166 b 525 1175 553 1173 539 1175 b 422 1121 484 1175 450 1157 b 396 1105 414 1111 406 1105 b 373 1111 391 1105 384 1107 l 363 1099 l 465 1006 l 477 1015 b 467 1036 470 1024 467 1031 b 506 1070 467 1052 488 1070 b 536 1065 516 1070 526 1068 l 636 1026 b 694 1015 656 1019 675 1015 b 790 1076 728 1015 760 1035 b 808 1088 796 1084 802 1088 b 833 1082 811 1088 820 1086 l 844 1095 l 745 1186 "},"Œ":{"ha":1651,"x_min":0,"x_max":0,"o":"m 1300 406 b 1350 363 1328 406 1341 395 l 1371 363 l 1371 597 l 1350 597 b 1300 553 1341 564 1328 553 l 925 553 l 925 773 l 1504 773 b 1553 730 1532 773 1544 763 l 1575 730 l 1575 970 l 1553 970 b 1504 926 1544 937 1531 926 l 723 926 l 586 931 b 374 896 511 931 439 920 b 134 711 269 859 189 798 b 62 463 85 636 62 553 b 96 286 62 401 73 342 b 212 123 123 222 161 168 b 581 -5 307 37 431 -5 b 687 -1 599 -5 634 -4 b 723 0 707 -1 719 0 l 1520 0 b 1569 -43 1548 0 1560 -11 l 1591 -43 l 1591 196 l 1569 196 b 1520 153 1560 163 1548 153 l 925 153 l 925 406 m 723 153 b 608 145 679 148 641 145 b 357 231 500 145 416 174 b 268 463 298 290 268 367 b 357 694 268 558 298 635 b 610 781 416 752 500 781 b 723 773 645 781 683 778 "},"œ":{"ha":1361,"x_min":0,"x_max":0,"o":"m 1057 323 b 1108 279 1086 323 1099 311 l 1126 279 l 1126 498 l 1108 498 b 1057 455 1099 466 1086 455 l 772 455 l 772 622 l 1235 622 b 1286 578 1264 622 1276 611 l 1304 578 l 1304 803 l 1286 803 b 1235 760 1277 770 1264 760 l 588 760 l 475 765 b 296 735 412 765 352 755 b 119 611 222 709 163 668 b 39 380 66 543 39 465 b 84 202 39 317 54 258 b 187 81 110 154 144 113 b 475 -5 262 23 359 -5 b 526 -3 492 -5 509 -5 b 588 0 559 -1 579 0 l 1253 0 b 1304 -43 1282 0 1295 -11 l 1322 -43 l 1322 182 l 1304 182 b 1253 138 1294 149 1282 138 l 772 138 l 772 323 m 590 138 b 494 130 557 133 526 130 b 304 193 414 130 351 151 b 224 380 250 241 224 303 b 304 566 224 456 250 518 b 495 629 351 608 414 629 b 590 622 527 629 558 627 "},"–":{"ha":1069,"x_min":0,"x_max":0,"o":"m 988 495 b 939 452 980 463 966 452 l 130 452 b 81 495 102 452 90 463 l 59 495 l 59 264 l 81 264 b 130 308 90 297 102 308 l 939 308 b 988 264 966 308 980 296 l 1010 264 l 1010 495 "},"—":{"ha":923,"x_min":0,"x_max":0,"o":"m 901 495 b 852 452 892 463 880 452 l 71 452 b 22 495 43 452 31 463 l 0 495 l 0 264 l 22 264 b 71 308 31 297 43 308 l 852 308 b 901 264 880 308 892 296 l 923 264 l 923 495 "},"“":{"ha":750,"x_min":0,"x_max":0,"o":"m 259 942 b 102 682 154 868 102 781 b 130 574 102 640 111 604 b 224 524 152 541 183 524 b 324 633 284 524 324 566 b 225 746 324 701 285 746 b 178 738 214 746 199 743 b 212 827 184 774 195 804 b 292 899 229 850 255 874 m 583 942 b 426 682 478 868 426 781 b 454 574 426 640 435 604 b 548 524 476 541 507 524 b 648 633 608 524 648 566 b 549 746 648 701 609 746 b 501 738 538 746 522 743 b 536 827 508 774 519 804 b 616 899 553 850 579 874 "},"”":{"ha":750,"x_min":0,"x_max":0,"o":"m 166 523 b 324 783 271 597 324 684 b 290 898 324 831 313 869 b 202 942 268 927 239 942 b 102 832 142 942 102 899 b 201 720 102 765 141 720 b 248 728 211 720 227 722 b 214 637 241 690 230 661 b 134 567 197 614 171 591 m 490 523 b 648 783 595 597 648 684 b 614 898 648 831 637 869 b 526 942 592 927 563 942 b 426 832 466 942 426 899 b 525 720 426 765 465 720 b 572 728 535 720 551 722 b 538 637 566 690 554 661 b 458 567 522 614 495 591 "},"‘":{"ha":426,"x_min":0,"x_max":0,"o":"m 259 942 b 102 682 154 868 102 781 b 130 574 102 640 111 604 b 224 524 152 541 183 524 b 324 633 284 524 324 566 b 225 746 324 701 285 746 b 178 738 214 746 199 743 b 212 827 184 774 195 804 b 292 899 229 850 255 874 "},"’":{"ha":426,"x_min":0,"x_max":0,"o":"m 166 523 b 324 783 271 597 324 684 b 290 898 324 831 313 869 b 202 942 268 927 239 942 b 102 832 142 942 102 899 b 201 720 102 765 141 720 b 248 728 211 720 227 722 b 214 637 241 690 230 661 b 134 567 197 614 171 591 "},"÷":{"ha":1065,"x_min":0,"x_max":0,"o":"m 178 353 b 224 397 186 386 197 397 l 841 397 b 886 353 866 397 878 386 l 906 353 l 906 573 l 886 573 b 841 530 878 541 866 530 l 224 530 b 179 573 199 530 186 541 l 159 573 l 159 353 m 532 290 b 453 256 501 289 475 278 b 421 179 432 235 421 210 b 454 100 421 149 432 122 b 532 67 475 78 502 67 b 610 100 563 67 589 78 b 644 178 633 121 644 147 b 611 257 644 209 633 235 b 532 290 590 279 564 290 m 532 859 b 453 826 501 859 475 848 b 421 749 432 805 421 779 b 454 669 421 718 432 692 b 532 637 475 648 502 637 b 610 669 563 637 589 648 b 644 747 633 691 644 717 b 611 827 644 779 633 805 b 532 859 590 848 564 859 "},"◊":{"ha":926,"x_min":0,"x_max":0,"o":"m 102 463 l 463 -36 l 824 463 l 463 962 m 736 463 l 463 87 l 189 463 l 463 839 "},"ÿ":{"ha":831,"x_min":0,"x_max":0,"o":""},"Ÿ":{"ha":990,"x_min":0,"x_max":0,"o":"m 895 808 b 956 881 921 844 941 869 b 1008 904 970 894 988 901 l 1008 926 l 650 926 l 650 904 b 696 863 678 899 696 884 b 668 808 696 853 686 835 l 496 560 l 330 808 b 302 862 311 836 302 854 b 347 904 302 885 317 899 l 347 926 l -18 926 l -18 904 b 34 881 2 901 20 894 b 95 808 49 869 69 844 l 394 387 l 394 71 b 349 22 394 43 382 31 l 349 0 l 640 0 l 640 22 b 596 71 608 31 596 43 l 596 387 m 359 1181 b 271 1093 309 1179 271 1141 b 297 1030 271 1067 280 1047 b 359 1004 315 1013 336 1004 b 422 1030 385 1004 406 1013 b 448 1090 439 1047 448 1067 b 422 1156 448 1116 439 1138 b 359 1181 406 1173 385 1181 m 629 1181 b 566 1155 604 1181 583 1172 b 541 1093 549 1138 541 1118 b 566 1030 541 1069 549 1048 b 628 1004 583 1013 604 1004 b 692 1030 654 1004 675 1013 b 718 1095 709 1047 718 1069 b 692 1156 718 1118 709 1138 b 629 1181 675 1173 654 1181 "},"∕":{"ha":399,"x_min":0,"x_max":0,"o":"m 300 926 l 300 904 b 352 858 330 899 352 880 b 332 808 352 847 345 831 l -81 119 b -134 43 -106 79 -123 54 b -185 22 -146 33 -163 26 l -185 0 l 100 0 l 100 22 b 47 62 67 25 47 40 b 64 103 47 71 53 84 l 484 808 b 538 887 511 853 530 880 b 585 904 547 895 562 901 l 585 926 "},"¤":{"ha":1065,"x_min":0,"x_max":0,"o":"m 885 208 b 959 463 935 278 959 363 b 886 719 959 564 935 649 l 954 787 b 987 804 965 798 976 804 b 1020 791 995 804 1006 800 l 1036 807 l 876 966 l 861 951 b 873 917 869 937 873 926 b 857 885 873 907 867 896 l 775 803 b 533 859 705 840 625 859 b 290 804 441 859 359 840 l 208 885 b 192 917 197 895 192 906 b 204 951 192 926 196 937 l 189 966 l 29 807 l 45 791 b 78 804 58 800 69 804 b 110 787 89 804 100 798 l 180 718 b 106 463 130 647 106 562 b 180 208 106 363 130 279 l 110 138 b 78 123 100 128 89 123 b 45 134 69 123 58 127 l 29 119 l 189 -40 l 204 -24 b 192 9 196 -11 192 0 b 208 41 192 20 197 31 l 289 122 b 533 67 360 85 441 67 b 775 122 622 67 703 85 l 857 41 b 873 9 867 31 873 20 b 861 -24 873 0 869 -11 l 876 -40 l 1036 119 l 1020 134 b 986 123 1006 127 995 123 b 954 138 975 123 964 128 l 885 208 m 532 715 b 710 640 606 714 665 689 b 774 460 753 593 774 533 b 710 287 774 391 753 333 b 532 211 665 236 605 211 b 355 287 460 211 400 236 b 291 463 312 334 291 392 b 355 640 291 534 312 593 b 532 715 400 690 459 715 "},"‹":{"ha":434,"x_min":0,"x_max":0,"o":"m 215 667 l 83 393 l 215 120 l 332 120 l 199 393 l 332 667 "},"›":{"ha":434,"x_min":0,"x_max":0,"o":"m 235 393 l 102 120 l 219 120 l 351 393 l 219 667 l 102 667 "},"":{"ha":1249,"x_min":0,"x_max":0,"o":"m 578 323 b 629 279 607 323 620 311 l 647 279 l 647 498 l 629 498 b 578 455 618 466 607 455 l 292 455 l 292 622 l 747 622 b 798 578 777 622 789 610 l 817 578 l 817 803 l 798 803 b 747 760 789 770 777 760 l 66 760 l 66 741 b 110 690 99 730 110 718 l 110 69 b 66 19 110 41 98 27 l 66 0 l 335 0 l 335 18 b 292 69 302 28 292 41 l 292 323 m 1138 690 b 1181 741 1138 718 1149 732 l 1181 760 l 913 760 l 913 741 b 956 690 946 730 956 718 l 956 69 b 913 19 956 41 945 27 l 913 0 l 1181 0 l 1181 18 b 1138 69 1149 27 1138 41 l 1138 690 "},"":{"ha":1644,"x_min":0,"x_max":0,"o":"m 578 323 b 629 279 607 323 620 311 l 647 279 l 647 498 l 629 498 b 578 455 618 466 606 455 l 292 455 l 292 622 l 747 622 b 798 578 777 622 788 611 l 817 578 l 817 803 l 798 803 b 747 760 789 770 777 760 l 66 760 l 66 741 b 110 690 99 730 110 718 l 110 69 b 66 19 110 41 98 27 l 66 0 l 335 0 l 335 18 b 292 69 302 28 292 41 l 292 323 m 1138 690 b 1181 741 1138 718 1149 732 l 1181 760 l 913 760 l 913 741 b 956 690 946 730 956 718 l 956 69 b 913 19 956 41 945 27 l 913 0 l 1563 0 b 1614 -43 1592 0 1605 -11 l 1632 -43 l 1632 182 l 1614 182 b 1563 138 1604 149 1592 138 l 1138 138 "},"‡":{"ha":749,"x_min":0,"x_max":0,"o":"m 462 947 b 505 997 465 979 473 988 l 505 1019 l 244 1019 l 244 997 b 288 947 277 988 284 980 l 315 728 l 155 728 b 106 736 131 728 115 731 b 87 772 99 741 92 753 l 65 772 l 65 557 l 87 557 b 136 601 96 590 109 601 l 315 601 l 309 325 l 136 325 b 87 368 109 325 97 335 l 65 368 l 65 154 l 87 154 b 106 189 92 172 99 184 b 155 197 115 195 131 197 l 309 197 l 288 -22 b 244 -71 285 -54 277 -62 l 244 -93 l 505 -93 l 505 -71 b 462 -22 473 -62 465 -54 l 441 197 l 613 197 b 663 154 641 197 654 186 l 684 154 l 684 368 l 663 368 b 613 325 654 336 641 325 l 441 325 l 434 601 l 613 601 b 663 557 641 601 654 590 l 684 557 l 684 772 l 663 772 b 613 728 654 739 641 728 l 434 728 "},"·":{"ha":426,"x_min":0,"x_max":0,"o":"m 213 454 b 134 420 182 453 155 442 b 102 343 113 399 102 374 b 134 264 102 313 113 286 b 213 231 156 242 182 231 b 291 264 243 231 269 242 b 324 342 313 286 324 311 b 292 421 324 373 313 399 b 213 454 271 443 244 454 "},"∙":{"ha":426,"x_min":0,"x_max":0,"o":"m 213 454 b 292 421 244 454 271 443 b 324 342 313 399 324 373 b 291 264 324 311 313 286 b 213 231 269 242 243 231 b 134 264 182 231 156 242 b 102 343 113 286 102 313 b 134 420 102 374 113 399 b 213 454 155 442 182 453 "},"‚":{"ha":426,"x_min":0,"x_max":0,"o":"m 166 -213 b 324 47 271 -139 324 -52 b 296 156 324 90 315 125 b 202 206 274 189 243 206 b 102 96 142 206 102 163 b 201 -16 102 29 141 -16 b 248 -9 211 -16 227 -14 b 214 -98 241 -45 230 -75 b 134 -170 197 -121 171 -145 "},"„":{"ha":750,"x_min":0,"x_max":0,"o":"m 166 -213 b 324 47 271 -139 324 -52 b 296 156 324 90 315 125 b 202 206 274 189 243 206 b 102 96 142 206 102 163 b 201 -16 102 29 141 -16 b 248 -9 211 -16 227 -14 b 214 -98 241 -45 230 -75 b 134 -170 197 -121 171 -145 m 490 -213 b 648 47 595 -138 648 -52 b 620 156 648 90 639 125 b 526 206 598 189 567 206 b 426 96 466 206 426 163 b 525 -16 426 29 465 -16 b 572 -9 535 -16 551 -14 b 538 -98 566 -45 554 -75 b 458 -170 522 -121 495 -145 "},"‰":{"ha":1793,"x_min":0,"x_max":0,"o":"m 282 934 b 119 874 217 933 163 913 b 46 694 71 830 46 770 b 119 514 46 619 71 559 b 283 454 163 474 217 454 b 446 514 349 454 403 474 b 519 691 495 559 519 618 b 446 874 519 768 495 829 b 282 934 403 914 348 934 m 283 837 b 402 692 355 836 402 779 b 368 591 402 651 391 617 b 283 551 346 564 317 551 b 197 591 248 551 219 564 b 163 694 174 617 163 652 b 197 797 163 736 174 770 b 283 837 219 823 248 837 m 943 471 b 781 412 878 471 824 450 b 707 232 732 368 707 308 b 781 52 707 157 732 96 b 944 -8 824 12 878 -8 b 1107 52 1010 -8 1064 12 b 1181 229 1156 96 1181 155 b 1107 412 1181 306 1156 367 b 943 471 1064 452 1009 471 m 944 374 b 1063 230 1017 374 1063 317 b 1029 128 1063 189 1052 155 b 944 89 1007 102 979 89 b 858 128 909 89 880 102 b 825 231 836 155 825 189 b 858 334 825 274 836 308 b 944 374 880 361 909 374 m 936 808 b 1000 886 968 851 990 877 b 1051 904 1011 895 1028 901 l 1051 926 l 810 926 l 810 904 b 851 863 838 897 851 883 b 821 808 851 852 841 833 l 287 119 b 220 43 256 79 233 54 b 165 22 207 33 189 25 l 165 0 l 407 0 l 407 22 b 366 57 380 27 366 39 b 391 103 366 66 374 82 l 936 808 m 1509 471 b 1346 412 1444 471 1390 450 b 1273 232 1297 368 1273 308 b 1346 52 1273 157 1297 96 b 1510 -8 1390 12 1444 -8 b 1673 52 1575 -8 1630 12 b 1746 229 1722 96 1746 155 b 1673 412 1746 306 1722 367 b 1509 471 1630 452 1575 471 m 1510 374 b 1629 230 1582 374 1629 317 b 1595 128 1629 189 1617 155 b 1510 89 1573 102 1544 89 b 1423 128 1474 89 1446 102 b 1390 231 1401 155 1390 189 b 1423 334 1390 274 1401 308 b 1510 374 1446 361 1474 374 "},"Â":{"ha":1130,"x_min":0,"x_max":0,"o":"m 825 106 b 839 64 834 87 839 73 b 794 22 839 41 824 26 l 794 0 l 1135 0 l 1135 22 b 1089 43 1116 25 1101 33 b 1050 106 1078 55 1065 75 l 697 819 b 684 864 688 836 684 851 b 724 904 684 883 698 897 l 724 926 l 396 926 l 396 904 b 435 859 422 895 435 880 b 419 805 435 846 430 827 l 79 94 b 46 41 66 67 56 50 b 5 22 37 32 23 25 l 5 0 l 311 0 l 311 22 b 266 63 281 29 266 43 b 279 106 266 73 270 87 l 341 236 l 762 236 m 401 363 l 553 692 l 703 363 m 500 1021 b 480 1032 487 1021 480 1025 b 486 1044 480 1036 482 1040 l 549 1116 l 606 1046 b 616 1031 613 1038 616 1033 b 595 1021 616 1025 610 1021 l 595 1002 l 790 1002 l 790 1021 b 760 1034 777 1021 767 1025 l 658 1147 b 647 1166 650 1155 647 1162 b 667 1179 647 1173 654 1177 l 667 1197 l 453 1197 l 453 1179 b 475 1167 468 1179 475 1175 b 468 1150 475 1161 473 1156 l 377 1049 b 351 1024 363 1035 355 1026 b 330 1021 348 1022 341 1021 l 330 1002 l 500 1002 "},"Ê":{"ha":1055,"x_min":0,"x_max":0,"o":"m 705 406 b 753 363 732 406 745 395 l 775 363 l 775 597 l 753 597 b 705 553 745 564 732 553 l 329 553 l 329 773 l 908 773 b 957 730 935 773 948 762 l 979 730 l 979 970 l 957 970 b 908 926 948 937 935 926 l 83 926 l 83 904 b 127 854 116 895 127 882 l 127 71 b 83 22 127 43 116 31 l 83 0 l 924 0 b 973 -43 951 0 964 -11 l 995 -43 l 995 196 l 973 196 b 924 153 964 163 951 153 l 329 153 l 329 406 m 484 1021 b 464 1032 471 1021 464 1025 b 470 1044 464 1036 466 1040 l 532 1116 l 589 1046 b 600 1031 597 1038 600 1033 b 579 1021 600 1025 593 1021 l 579 1002 l 774 1002 l 774 1021 b 743 1034 761 1021 751 1025 l 642 1147 b 631 1166 634 1155 631 1162 b 651 1179 631 1173 637 1177 l 651 1197 l 437 1197 l 437 1179 b 459 1167 452 1179 459 1175 b 452 1150 459 1161 456 1156 l 361 1049 b 335 1024 347 1035 338 1026 b 314 1021 332 1022 325 1021 l 314 1002 l 484 1002 "},"Á":{"ha":1130,"x_min":0,"x_max":0,"o":"m 825 106 b 839 64 834 87 839 73 b 794 22 839 41 824 26 l 794 0 l 1135 0 l 1135 22 b 1089 43 1116 25 1101 33 b 1050 106 1078 55 1065 75 l 697 819 b 684 864 688 836 684 851 b 724 904 684 883 698 897 l 724 926 l 396 926 l 396 904 b 435 859 422 895 435 880 b 419 805 435 846 430 827 l 79 94 b 46 41 66 67 56 50 b 5 22 37 32 23 25 l 5 0 l 311 0 l 311 22 b 266 63 281 29 266 43 b 279 106 266 73 270 87 l 341 236 l 762 236 m 401 363 l 553 692 l 703 363 m 545 1197 l 545 1179 b 564 1166 558 1177 564 1173 b 562 1156 564 1163 564 1160 l 517 1045 b 481 1021 509 1025 503 1021 l 481 1002 l 628 1002 l 628 1021 l 625 1021 b 611 1031 616 1021 611 1024 b 615 1042 611 1036 612 1039 l 711 1160 b 751 1179 720 1172 734 1178 l 751 1197 "},"Ë":{"ha":1055,"x_min":0,"x_max":0,"o":"m 705 406 b 753 363 732 406 745 395 l 775 363 l 775 597 l 753 597 b 705 553 745 564 732 553 l 329 553 l 329 773 l 908 773 b 957 730 935 773 948 762 l 979 730 l 979 970 l 957 970 b 908 926 948 937 935 926 l 83 926 l 83 904 b 127 854 116 895 127 882 l 127 71 b 83 22 127 43 116 31 l 83 0 l 924 0 b 973 -43 951 0 964 -11 l 995 -43 l 995 196 l 973 196 b 924 153 964 163 951 153 l 329 153 l 329 406 m 408 1181 b 346 1154 383 1181 363 1171 b 321 1093 329 1137 321 1117 b 347 1030 321 1067 330 1047 b 409 1004 364 1013 385 1004 b 472 1030 434 1004 455 1013 b 498 1090 489 1047 498 1067 b 472 1156 498 1116 489 1138 b 408 1181 455 1173 433 1181 m 678 1181 b 615 1155 653 1181 632 1172 b 590 1093 598 1138 590 1117 b 615 1030 590 1069 598 1048 b 677 1004 632 1013 653 1004 b 741 1030 703 1004 724 1013 b 767 1095 758 1047 767 1069 b 741 1156 767 1118 758 1138 b 678 1181 724 1173 703 1181 "},"È":{"ha":1055,"x_min":0,"x_max":0,"o":"m 705 406 b 753 363 732 406 745 395 l 775 363 l 775 597 l 753 597 b 705 553 745 564 732 553 l 329 553 l 329 773 l 908 773 b 957 730 935 773 948 762 l 979 730 l 979 970 l 957 970 b 908 926 948 937 935 926 l 83 926 l 83 904 b 127 854 116 895 127 882 l 127 71 b 83 22 127 43 116 31 l 83 0 l 924 0 b 973 -43 951 0 964 -11 l 995 -43 l 995 196 l 973 196 b 924 153 964 163 951 153 l 329 153 l 329 406 m 362 1179 b 402 1160 380 1178 393 1172 l 498 1042 b 503 1031 501 1039 503 1036 b 489 1021 503 1024 498 1021 l 486 1021 l 486 1002 l 633 1002 l 633 1021 b 597 1045 611 1021 605 1025 l 552 1156 b 549 1166 550 1160 549 1163 b 568 1179 549 1173 555 1177 l 568 1197 l 362 1197 "},"Í":{"ha":456,"x_min":0,"x_max":0,"o":"m 127 71 b 83 22 127 43 116 31 l 83 0 l 372 0 l 372 22 b 329 71 340 30 329 43 l 329 855 b 372 904 329 882 340 896 l 372 926 l 83 926 l 83 904 b 127 855 116 895 127 882 l 127 71 m 215 1197 l 215 1179 b 234 1166 228 1177 234 1173 b 231 1156 234 1163 233 1160 l 186 1045 b 151 1021 178 1025 172 1021 l 151 1002 l 298 1002 l 298 1021 l 295 1021 b 281 1031 286 1021 281 1024 b 285 1042 281 1036 282 1039 l 381 1160 b 421 1179 390 1172 404 1178 l 421 1197 "},"Î":{"ha":455,"x_min":0,"x_max":0,"o":"m 127 71 b 83 22 127 43 116 31 l 83 0 l 372 0 l 372 22 b 329 71 340 30 329 43 l 329 855 b 372 904 329 882 340 896 l 372 926 l 83 926 l 83 904 b 127 855 116 895 127 882 l 127 71 m 173 1021 b 153 1032 160 1021 153 1025 b 159 1044 153 1036 155 1040 l 222 1116 l 279 1046 b 290 1031 286 1038 290 1033 b 269 1021 290 1025 283 1021 l 269 1002 l 463 1002 l 463 1021 b 433 1034 450 1021 440 1025 l 331 1147 b 320 1166 323 1155 320 1162 b 340 1179 320 1173 327 1177 l 340 1197 l 126 1197 l 126 1179 b 149 1167 141 1179 149 1175 b 141 1150 149 1161 146 1156 l 50 1049 b 24 1024 36 1035 28 1026 b 3 1021 21 1022 14 1021 l 3 1002 l 173 1002 "},"Ï":{"ha":455,"x_min":0,"x_max":0,"o":"m 127 71 b 83 22 127 43 116 31 l 83 0 l 372 0 l 372 22 b 329 71 340 30 329 43 l 329 855 b 372 904 329 882 340 896 l 372 926 l 83 926 l 83 904 b 127 855 116 895 127 882 l 127 71 m 116 1181 b 54 1154 92 1181 71 1171 b 29 1093 37 1137 29 1117 b 55 1030 29 1067 38 1047 b 117 1004 73 1013 94 1004 b 180 1030 142 1004 163 1013 b 206 1090 197 1047 206 1067 b 180 1156 206 1116 197 1138 b 116 1181 163 1173 142 1181 m 340 1181 b 277 1155 315 1181 294 1172 b 252 1093 260 1138 252 1117 b 277 1030 252 1069 260 1048 b 338 1004 294 1013 315 1004 b 404 1030 365 1004 387 1013 b 429 1095 420 1047 429 1069 b 404 1156 429 1118 420 1138 b 340 1181 387 1173 366 1181 "},"Ì":{"ha":456,"x_min":0,"x_max":0,"o":"m 127 71 b 83 22 127 43 116 31 l 83 0 l 372 0 l 372 22 b 329 71 340 30 329 43 l 329 855 b 372 904 329 882 340 896 l 372 926 l 83 926 l 83 904 b 127 855 116 895 127 882 l 127 71 m 37 1179 b 77 1160 54 1178 68 1172 l 173 1042 b 177 1031 176 1039 177 1036 b 163 1021 177 1024 172 1021 l 160 1021 l 160 1002 l 307 1002 l 307 1021 b 271 1045 286 1021 279 1025 l 227 1156 b 224 1166 224 1160 224 1163 b 243 1179 224 1173 230 1177 l 243 1197 l 37 1197 "},"Ó":{"ha":1188,"x_min":0,"x_max":0,"o":"m 592 942 b 133 718 377 939 224 865 b 62 463 85 641 62 556 b 96 282 62 400 73 340 b 212 115 123 217 161 161 b 593 -16 306 27 433 -16 b 1054 209 807 -16 960 59 b 1126 457 1102 286 1126 368 b 976 811 1126 602 1076 720 b 592 942 882 899 753 942 m 593 785 b 815 707 682 785 756 758 b 920 459 885 646 920 564 b 895 334 920 416 911 374 b 815 220 877 289 850 251 b 594 141 757 168 683 141 b 372 220 505 141 431 168 b 268 463 302 281 268 363 b 372 707 268 564 302 645 b 593 785 431 759 505 785 m 574 1197 l 574 1179 b 593 1166 587 1177 593 1173 b 590 1156 593 1163 592 1160 l 545 1045 b 509 1021 537 1025 531 1021 l 509 1002 l 656 1002 l 656 1021 l 654 1021 b 640 1031 644 1021 640 1024 b 644 1042 640 1036 641 1039 l 740 1160 b 780 1179 749 1172 762 1178 l 780 1197 "},"Ô":{"ha":1188,"x_min":0,"x_max":0,"o":"m 592 942 b 133 718 377 939 224 865 b 62 463 85 641 62 556 b 96 282 62 400 73 340 b 212 115 123 217 161 161 b 593 -16 306 27 433 -16 b 1054 209 807 -16 960 59 b 1126 457 1102 286 1126 368 b 976 811 1126 602 1076 720 b 592 942 882 899 753 942 m 593 785 b 815 707 682 785 756 758 b 920 459 885 646 920 564 b 895 334 920 416 911 374 b 815 220 877 289 850 251 b 594 141 757 168 683 141 b 372 220 505 141 431 168 b 268 463 302 281 268 363 b 372 707 268 564 302 645 b 593 785 431 759 505 785 m 534 1021 b 514 1032 521 1021 514 1025 b 520 1044 514 1036 516 1040 l 583 1116 l 640 1046 b 650 1031 647 1038 650 1033 b 629 1021 650 1025 644 1021 l 629 1002 l 824 1002 l 824 1021 b 793 1034 811 1021 801 1025 l 692 1147 b 681 1166 684 1155 681 1162 b 701 1179 681 1173 688 1177 l 701 1197 l 487 1197 l 487 1179 b 509 1167 502 1179 509 1175 b 502 1150 509 1161 507 1156 l 411 1049 b 385 1024 397 1035 389 1026 b 364 1021 382 1022 375 1021 l 364 1002 l 534 1002 "},"Ò":{"ha":1188,"x_min":0,"x_max":0,"o":"m 592 942 b 133 718 377 939 224 865 b 62 463 85 641 62 556 b 96 282 62 400 73 340 b 212 115 123 217 161 161 b 593 -16 306 27 433 -16 b 1054 209 807 -16 960 59 b 1126 457 1102 286 1126 368 b 976 811 1126 602 1076 720 b 592 942 882 899 753 942 m 593 785 b 815 707 682 785 756 758 b 920 459 885 646 920 564 b 895 334 920 416 911 374 b 815 220 877 289 850 251 b 594 141 757 168 683 141 b 372 220 505 141 431 168 b 268 463 302 281 268 363 b 372 707 268 564 302 645 b 593 785 431 759 505 785 m 412 1179 b 452 1160 430 1178 444 1172 l 549 1042 b 553 1031 551 1039 553 1036 b 539 1021 553 1024 548 1021 l 536 1021 l 536 1002 l 683 1002 l 683 1021 b 647 1045 661 1021 655 1025 l 602 1156 b 600 1166 600 1160 600 1163 b 618 1179 600 1173 606 1177 l 618 1197 l 412 1197 "},"Ú":{"ha":1133,"x_min":0,"x_max":0,"o":"m 1025 854 b 1069 904 1025 882 1036 895 l 1069 926 l 796 926 l 796 904 b 840 854 829 895 840 882 l 840 393 b 831 274 840 339 837 300 b 798 210 825 249 814 227 b 575 141 755 164 680 141 b 353 210 470 141 396 164 b 319 274 336 227 326 249 b 311 393 313 300 311 339 l 311 854 b 355 904 311 882 322 896 l 355 926 l 65 926 l 65 904 b 109 854 98 895 109 882 l 109 336 b 134 168 109 271 117 214 b 229 55 152 120 184 83 b 568 -16 307 7 420 -16 b 971 115 772 -16 906 28 b 1025 336 1007 164 1025 237 l 1025 854 m 547 1197 l 547 1179 b 566 1166 559 1177 566 1173 b 563 1156 566 1163 565 1160 l 518 1045 b 482 1021 510 1025 504 1021 l 482 1002 l 629 1002 l 629 1021 l 627 1021 b 612 1031 617 1021 612 1024 b 616 1042 612 1036 614 1039 l 713 1160 b 753 1179 722 1172 735 1178 l 753 1197 "},"Û":{"ha":1133,"x_min":0,"x_max":0,"o":"m 1025 854 b 1069 904 1025 882 1036 895 l 1069 926 l 796 926 l 796 904 b 840 854 829 895 840 882 l 840 393 b 831 274 840 339 837 300 b 798 210 825 249 814 227 b 575 141 755 164 680 141 b 353 210 470 141 396 164 b 319 274 336 227 326 249 b 311 393 313 300 311 339 l 311 854 b 355 904 311 882 322 896 l 355 926 l 65 926 l 65 904 b 109 854 98 895 109 882 l 109 336 b 134 168 109 271 117 214 b 229 55 152 120 184 83 b 568 -16 307 7 420 -16 b 971 115 772 -16 906 28 b 1025 336 1007 164 1025 237 l 1025 854 m 511 1021 b 492 1032 498 1021 492 1025 b 498 1044 492 1036 494 1040 l 560 1116 l 617 1046 b 628 1031 625 1038 628 1033 b 607 1021 628 1025 621 1021 l 607 1002 l 802 1002 l 802 1021 b 771 1034 789 1021 779 1025 l 669 1147 b 659 1166 662 1155 659 1162 b 679 1179 659 1173 665 1177 l 679 1197 l 465 1197 l 465 1179 b 487 1167 479 1179 487 1175 b 479 1150 487 1161 484 1156 l 389 1049 b 363 1024 374 1035 366 1026 b 342 1021 359 1022 353 1021 l 342 1002 l 511 1002 "},"Ù":{"ha":1133,"x_min":0,"x_max":0,"o":"m 1025 854 b 1069 904 1025 882 1036 895 l 1069 926 l 796 926 l 796 904 b 840 854 829 895 840 882 l 840 393 b 831 274 840 339 837 300 b 798 210 825 249 814 227 b 575 141 755 164 680 141 b 353 210 470 141 396 164 b 319 274 336 227 326 249 b 311 393 313 300 311 339 l 311 854 b 355 904 311 882 322 896 l 355 926 l 65 926 l 65 904 b 109 854 98 895 109 882 l 109 336 b 134 168 109 271 117 214 b 229 55 152 120 184 83 b 568 -16 307 7 420 -16 b 971 115 772 -16 906 28 b 1025 336 1007 164 1025 237 l 1025 854 m 390 1179 b 430 1160 408 1178 421 1172 l 526 1042 b 530 1031 529 1039 530 1036 b 517 1021 530 1024 526 1021 l 513 1021 l 513 1002 l 661 1002 l 661 1021 b 625 1045 639 1021 633 1025 l 580 1156 b 577 1166 578 1160 577 1163 b 596 1179 577 1173 583 1177 l 596 1197 l 390 1197 "},"ı":{"ha":402,"x_min":0,"x_max":0,"o":"m 292 690 b 335 741 292 718 302 732 l 335 760 l 66 760 l 66 741 b 110 690 99 730 110 718 l 110 69 b 66 19 110 41 98 27 l 66 0 l 335 0 l 335 18 b 292 69 302 28 292 41 l 292 690 "},"ˆ":{"ha":694,"x_min":0,"x_max":0,"o":"m 287 863 b 267 875 274 864 267 868 b 273 887 267 879 269 883 l 336 959 l 393 889 b 404 873 400 880 404 876 b 382 863 404 868 397 865 l 382 845 l 577 845 l 577 863 b 547 877 564 864 554 868 l 445 990 b 434 1009 437 998 434 1004 b 454 1021 434 1016 441 1020 l 454 1040 l 240 1040 l 240 1021 b 262 1010 255 1021 262 1017 b 255 993 262 1004 260 998 l 164 892 b 138 867 150 878 142 869 b 117 863 135 865 128 864 l 117 845 l 287 845 "},"˜":{"ha":694,"x_min":0,"x_max":0,"o":"m 475 1018 b 486 996 482 1009 486 1002 b 448 962 486 979 467 962 b 414 969 438 962 427 964 l 313 1008 b 269 1017 298 1015 283 1017 b 165 963 228 1017 193 999 b 140 948 158 953 149 948 b 117 954 135 948 127 950 l 107 942 l 208 848 l 220 858 b 210 878 214 866 210 873 b 250 912 210 894 231 912 b 279 907 260 912 271 911 l 380 869 b 437 857 401 861 420 857 b 534 919 471 857 503 878 b 551 930 540 926 545 930 b 576 924 555 930 564 928 l 587 938 l 489 1029 "},"ˉ":{"ha":694,"x_min":0,"x_max":0,"o":"m 537 1019 b 488 981 527 991 514 981 l 207 981 b 157 1019 180 981 168 991 l 139 1019 l 139 842 l 157 842 b 207 880 168 871 180 880 l 488 880 b 537 842 515 880 527 871 l 555 842 l 555 1019 "},"˘":{"ha":694,"x_min":0,"x_max":0,"o":"m 132 1020 b 151 1005 144 1019 150 1015 b 179 922 152 975 161 947 b 347 842 215 869 271 842 b 515 922 423 842 479 869 b 544 1005 533 947 543 975 b 563 1020 545 1015 551 1019 l 563 1037 l 420 1037 l 420 1020 b 440 1008 437 1020 440 1019 b 412 958 440 989 431 972 b 347 938 394 945 372 938 b 281 958 322 938 300 945 b 254 1008 263 972 254 989 b 274 1020 254 1019 257 1020 l 274 1037 l 132 1037 l 132 1020 "},"˙":{"ha":694,"x_min":0,"x_max":0,"o":"m 346 1024 b 284 997 321 1023 301 1014 b 259 935 267 980 259 960 b 285 873 259 910 268 890 b 347 847 302 856 323 847 b 410 873 372 847 393 856 b 436 934 427 890 436 910 b 410 998 436 959 427 981 b 346 1024 393 1015 372 1024 "},"˚":{"ha":694,"x_min":0,"x_max":0,"o":"m 347 1072 b 236 1035 302 1072 266 1059 b 192 945 207 1011 192 981 b 237 854 192 910 207 880 b 347 817 268 829 304 817 b 457 854 389 817 426 829 b 503 944 488 878 503 908 b 457 1035 503 979 488 1010 b 347 1072 427 1060 391 1072 m 347 1002 b 416 944 388 1002 416 977 b 347 888 416 913 385 888 b 279 945 309 888 279 913 b 347 1002 279 978 307 1002 "},"¸":{"ha":694,"x_min":0,"x_max":0,"o":"m 277 -164 b 328 -140 291 -149 308 -140 b 377 -188 355 -140 377 -161 b 281 -245 377 -223 340 -245 b 212 -234 260 -245 237 -241 l 197 -266 b 334 -285 235 -279 280 -285 b 458 -252 388 -285 429 -274 b 498 -172 484 -231 498 -204 b 318 -65 498 -104 433 -65 b 292 -85 304 -65 303 -65 l 256 -152 "},"˝":{"ha":694,"x_min":0,"x_max":0,"o":"m 222 1040 l 222 1021 b 241 1008 235 1020 242 1016 b 238 998 241 1006 240 1003 l 193 888 b 157 863 185 868 179 863 l 157 845 l 298 845 l 298 863 l 296 863 b 281 874 286 863 281 867 b 286 885 281 878 283 882 l 382 1003 b 422 1021 391 1015 404 1021 l 422 1040 m 476 1040 l 476 1021 b 496 1008 489 1020 496 1016 b 493 998 496 1006 495 1003 l 448 888 b 412 863 439 868 433 863 l 412 845 l 553 845 l 553 863 l 551 863 b 536 874 541 863 536 867 b 541 885 536 878 538 882 l 636 1003 b 676 1021 645 1015 659 1021 l 676 1040 "},"˛":{"ha":694,"x_min":0,"x_max":0,"o":"m 629 0 b 561 -41 595 -18 573 -31 b 518 -121 532 -62 518 -88 b 566 -203 518 -157 534 -184 b 676 -225 591 -218 628 -225 b 788 -208 713 -225 750 -219 l 777 -179 b 728 -186 755 -184 739 -186 b 640 -117 673 -186 640 -160 b 715 0 640 -78 665 -39 l 629 0 "},"ˇ":{"ha":694,"x_min":0,"x_max":0,"o":"m 408 1021 b 427 1010 420 1021 427 1017 b 422 998 427 1006 425 1002 l 359 926 l 302 996 b 291 1011 294 1004 291 1009 b 312 1021 291 1017 298 1020 l 312 1040 l 117 1040 l 117 1021 b 148 1008 130 1021 140 1017 l 250 895 b 260 876 257 887 260 880 b 240 863 260 869 254 865 l 240 845 l 454 845 l 454 863 b 432 875 439 863 432 867 b 439 892 432 881 435 886 l 530 993 b 555 1017 544 1007 552 1015 b 577 1021 559 1019 566 1021 l 577 1040 l 408 1040 "},"¦":{"ha":694,"x_min":0,"x_max":0,"o":"m 248 440 l 446 440 l 446 926 l 248 926 m 248 -231 l 446 -231 l 446 213 l 248 213 "},"­":{"ha":309,"x_min":0,"x_max":0,"o":"m 287 497 b 237 453 278 464 265 453 l 71 453 b 22 497 43 453 30 465 l 0 497 l 0 262 l 22 262 b 71 306 30 294 43 306 l 237 306 b 287 262 265 306 278 295 l 309 262 l 309 497 "},"¯":{"ha":694,"x_min":0,"x_max":0,"o":"m 0 1007 l 694 1007 l 694 1125 l 0 1125 "},"²":{"ha":657,"x_min":0,"x_max":0,"o":"m 212 478 b 301 526 225 493 254 509 b 349 545 329 536 345 543 l 416 572 b 581 762 530 619 581 677 b 518 888 581 814 559 857 b 353 935 477 920 422 935 b 115 857 259 935 180 909 b 85 840 100 846 90 840 b 60 848 80 840 71 842 l 43 834 l 165 713 l 180 727 b 173 753 176 741 173 749 b 222 805 173 770 189 788 b 338 833 258 823 297 833 b 439 764 406 833 439 810 b 345 667 439 723 412 696 l 271 636 b 153 577 219 614 180 594 b 85 515 127 560 105 540 b 43 374 57 477 43 431 b 43 345 43 370 43 361 l 66 345 b 104 370 71 368 75 370 l 565 370 b 593 345 582 370 587 365 l 615 345 l 615 504 l 593 504 b 565 478 587 483 582 478 l 212 478 "},"³":{"ha":657,"x_min":0,"x_max":0,"o":"m 523 663 b 591 774 568 689 591 726 b 510 901 591 830 564 872 b 349 935 466 924 412 935 b 103 867 259 935 177 912 b 82 859 94 861 87 859 b 58 866 77 859 69 861 l 41 853 l 146 733 l 164 746 b 157 766 159 754 157 761 b 215 811 157 782 176 797 b 339 833 254 825 295 833 b 464 766 420 833 464 809 b 342 700 464 725 418 700 b 286 705 313 700 294 701 b 268 729 277 708 271 716 l 246 729 l 246 586 l 268 586 b 286 608 271 597 277 605 b 344 614 296 612 315 614 b 476 541 432 614 476 589 b 338 464 476 494 424 464 b 184 491 281 464 230 473 b 116 552 139 509 116 530 b 119 563 116 555 117 558 l 98 571 l 24 416 l 44 406 b 73 422 57 417 66 422 b 123 405 80 422 97 416 b 340 361 188 376 260 361 b 528 403 414 361 477 375 b 614 541 585 434 614 480 b 523 663 614 600 584 640 "},"¹":{"ha":657,"x_min":0,"x_max":0,"o":"m 220 720 b 250 749 227 741 231 745 l 284 757 l 284 417 b 256 391 284 401 279 397 l 256 370 l 447 370 l 447 391 b 419 417 425 397 419 401 l 419 880 b 447 905 419 895 425 900 l 447 926 l 256 926 l 256 905 b 284 880 278 900 284 894 l 284 860 l 250 852 b 239 850 245 851 241 850 b 224 865 232 850 227 855 l 220 874 l 199 874 l 199 720 "},"¼":{"ha":1713,"x_min":0,"x_max":0,"o":"m 220 720 b 250 749 227 741 231 745 l 284 757 l 284 417 b 256 391 284 401 279 397 l 256 370 l 447 370 l 447 391 b 419 417 425 397 419 401 l 419 880 b 447 905 419 895 425 900 l 447 926 l 256 926 l 256 905 b 284 880 278 900 284 894 l 284 860 l 250 852 b 239 850 245 851 241 850 b 224 865 232 850 227 855 l 220 874 l 199 874 l 199 720 m 958 926 l 958 904 b 1010 858 987 899 1010 880 b 989 808 1010 847 1003 831 l 576 119 b 523 43 552 79 534 54 b 473 22 512 33 495 25 l 473 0 l 758 0 l 758 22 b 705 62 725 25 705 40 b 722 103 705 71 711 84 l 1141 808 b 1196 887 1169 853 1187 880 b 1242 904 1205 895 1220 901 l 1242 926 m 1472 47 b 1444 21 1472 31 1467 26 l 1444 0 l 1635 0 l 1635 21 b 1607 47 1613 26 1607 31 l 1607 92 l 1636 92 b 1664 66 1652 92 1657 87 l 1685 66 l 1685 217 l 1664 217 b 1636 191 1657 196 1652 191 l 1607 191 l 1607 509 b 1635 534 1607 524 1613 529 l 1635 555 l 1394 555 l 1394 534 b 1416 521 1409 532 1416 528 b 1398 495 1416 516 1410 508 l 1102 189 l 1102 66 l 1124 66 b 1165 92 1128 90 1133 92 l 1472 92 m 1259 191 l 1472 415 l 1472 191 "},"½":{"ha":1714,"x_min":0,"x_max":0,"o":"m 220 720 b 250 749 227 741 231 745 l 284 757 l 284 417 b 256 391 284 401 279 397 l 256 370 l 447 370 l 447 391 b 419 417 425 397 419 401 l 419 880 b 447 905 419 895 425 900 l 447 926 l 256 926 l 256 905 b 284 880 278 899 284 895 l 284 860 l 250 852 b 239 850 245 851 241 850 b 224 865 232 850 227 855 l 220 874 l 199 874 l 199 720 m 958 926 l 958 904 b 1010 858 987 899 1010 880 b 989 808 1010 847 1003 831 l 576 119 b 523 43 552 79 534 54 b 473 22 512 33 495 25 l 473 0 l 758 0 l 758 22 b 705 62 725 25 705 40 b 722 103 705 71 711 84 l 1141 808 b 1196 887 1169 853 1187 880 b 1242 904 1205 895 1220 901 l 1242 926 m 1268 108 b 1357 156 1280 122 1310 138 b 1404 174 1386 167 1402 173 l 1472 201 b 1636 391 1586 248 1636 307 b 1574 518 1636 444 1615 486 b 1409 565 1533 549 1478 565 b 1171 488 1315 565 1236 539 b 1141 469 1156 475 1146 469 b 1116 477 1136 469 1128 472 l 1099 463 l 1221 342 l 1236 356 b 1229 382 1232 370 1229 378 b 1279 435 1229 400 1246 418 b 1394 463 1315 453 1353 463 b 1495 393 1461 463 1495 439 b 1400 296 1495 353 1468 324 l 1327 265 b 1209 206 1274 243 1235 223 b 1142 144 1183 189 1161 169 b 1099 4 1113 106 1099 60 b 1099 -26 1099 0 1099 -10 l 1122 -26 b 1160 0 1126 -2 1131 0 l 1621 0 b 1649 -26 1638 0 1643 -5 l 1671 -26 l 1671 133 l 1649 133 b 1621 108 1643 113 1638 108 l 1268 108 "},"¾":{"ha":1713,"x_min":0,"x_max":0,"o":"m 523 663 b 591 774 568 689 591 726 b 510 901 591 830 564 872 b 349 935 466 924 412 935 b 103 867 258 935 176 912 b 82 859 94 861 87 859 b 58 866 77 859 69 861 l 41 853 l 146 733 l 164 746 b 157 766 159 754 157 761 b 215 811 157 782 176 797 b 339 833 254 825 295 833 b 464 766 420 833 464 809 b 342 700 464 725 418 700 b 286 705 313 700 294 701 b 268 729 277 708 271 716 l 246 729 l 246 586 l 268 586 b 286 608 271 597 277 605 b 344 614 296 612 315 614 b 476 541 432 614 476 589 b 338 464 476 494 424 464 b 184 491 281 464 230 473 b 116 552 139 509 116 530 b 119 563 116 555 117 558 l 98 571 l 24 416 l 44 406 b 73 422 57 417 66 422 b 123 405 80 422 97 416 b 340 361 188 376 260 361 b 528 403 414 361 477 375 b 614 541 585 434 614 480 b 523 663 614 600 584 640 m 958 926 l 958 904 b 1010 858 987 899 1010 880 b 989 808 1010 847 1003 831 l 576 119 b 523 43 552 79 534 54 b 473 22 512 33 495 26 l 473 0 l 758 0 l 758 22 b 705 62 725 25 705 40 b 722 103 705 71 711 84 l 1141 808 b 1196 887 1170 853 1188 880 b 1242 904 1204 895 1220 901 l 1242 926 m 1472 47 b 1444 21 1472 31 1467 26 l 1444 0 l 1635 0 l 1635 21 b 1607 47 1613 26 1607 31 l 1607 92 l 1636 92 b 1664 66 1652 92 1657 87 l 1685 66 l 1685 217 l 1664 217 b 1636 191 1657 196 1652 191 l 1607 191 l 1607 509 b 1635 534 1607 524 1613 529 l 1635 555 l 1394 555 l 1394 534 b 1416 521 1409 532 1416 528 b 1398 495 1416 516 1410 508 l 1102 189 l 1102 66 l 1124 66 b 1165 92 1128 90 1133 92 l 1472 92 m 1259 191 l 1472 415 l 1472 191 "},"Ð":{"ha":1164,"x_min":0,"x_max":0,"o":"m 127 71 b 84 22 127 43 117 31 l 84 0 l 600 0 b 811 22 686 0 756 7 b 956 98 866 38 914 63 b 1103 463 1054 182 1103 303 b 1054 701 1103 554 1086 633 b 861 887 1012 787 947 850 b 600 926 800 913 713 926 l 84 926 l 84 904 b 127 854 117 895 127 882 l 127 547 l 83 547 b 33 590 55 547 43 557 l 12 590 l 12 368 l 33 368 b 83 412 43 401 55 412 l 127 412 m 330 773 l 583 773 b 730 754 644 773 693 767 b 826 692 768 742 800 721 b 897 463 873 639 897 563 b 766 186 897 326 853 233 b 583 153 725 163 664 153 l 330 153 l 330 412 l 536 412 b 585 368 564 412 576 401 l 607 368 l 607 590 l 585 590 b 536 547 576 558 564 547 l 330 547 "},"×":{"ha":1065,"x_min":0,"x_max":0,"o":"m 720 182 b 734 153 729 172 734 163 b 721 119 734 144 730 133 l 735 104 l 890 260 l 877 275 b 842 262 862 266 850 262 b 814 275 833 262 823 267 l 627 463 l 814 650 b 842 665 823 660 833 665 b 877 652 851 665 863 661 l 890 666 l 735 821 l 721 807 b 734 773 730 793 734 781 b 720 744 734 763 729 753 l 532 557 l 345 745 b 331 773 336 753 331 763 b 344 807 331 781 335 793 l 330 821 l 174 666 l 189 652 b 222 664 203 660 214 664 b 251 650 233 664 242 659 l 439 463 l 251 275 b 222 262 242 267 233 262 b 189 275 214 262 203 266 l 174 260 l 330 104 l 344 119 b 331 153 335 133 331 144 b 345 182 331 163 336 172 l 532 369 "},"Ý":{"ha":990,"x_min":0,"x_max":0,"o":"m 895 808 b 956 881 921 844 941 869 b 1008 904 970 894 988 901 l 1008 926 l 650 926 l 650 904 b 696 863 678 899 696 884 b 668 808 696 853 686 835 l 496 560 l 330 808 b 302 862 311 836 302 854 b 347 904 302 885 317 899 l 347 926 l -18 926 l -18 904 b 34 881 2 901 20 894 b 95 808 49 869 69 844 l 394 387 l 394 71 b 349 22 394 43 382 31 l 349 0 l 640 0 l 640 22 b 596 71 608 31 596 43 l 596 387 m 471 1197 l 471 1179 b 490 1166 484 1177 490 1173 b 487 1156 490 1163 489 1160 l 442 1045 b 406 1021 434 1025 428 1021 l 406 1002 l 553 1002 l 553 1021 l 551 1021 b 536 1031 541 1021 536 1024 b 541 1042 536 1036 538 1039 l 637 1160 b 677 1179 646 1172 659 1178 l 677 1197 "},"Þ":{"ha":994,"x_min":0,"x_max":0,"o":"m 329 855 b 372 904 329 882 340 896 l 372 926 l 83 926 l 83 904 b 127 855 116 895 127 882 l 127 71 b 83 22 127 43 116 31 l 83 0 l 372 0 l 372 22 b 329 71 340 30 329 43 l 329 237 l 592 237 b 791 262 677 237 743 245 b 906 348 840 279 878 308 b 956 512 939 395 956 449 b 930 635 956 556 947 597 b 857 727 913 673 888 704 b 752 774 827 749 792 765 b 592 787 713 783 659 787 l 329 787 m 329 635 l 573 635 b 701 615 635 635 677 628 b 754 512 734 598 754 557 b 701 409 754 467 734 426 b 573 389 677 396 634 389 l 329 389 "},"ð":{"ha":992,"x_min":0,"x_max":0,"o":"m 125 69 b 81 19 125 41 113 27 l 81 0 l 527 0 b 827 85 668 0 757 25 b 943 380 904 152 943 250 b 908 564 943 450 931 511 b 746 725 875 639 821 692 b 527 760 692 748 620 760 l 81 760 l 81 741 b 125 690 114 730 125 718 l 125 456 l 89 456 b 40 500 62 456 48 468 l 18 500 l 18 297 l 40 297 b 89 340 48 329 62 340 l 125 340 m 307 622 l 500 622 b 694 560 595 622 653 604 b 758 380 736 517 758 458 b 694 199 758 302 736 241 b 500 138 654 158 589 138 l 307 138 l 307 340 l 448 340 b 498 297 476 340 489 330 l 519 297 l 519 500 l 498 500 b 448 456 489 467 476 456 l 307 456 "},"ý":{"ha":831,"x_min":0,"x_max":0,"o":""},"þ":{"ha":840,"x_min":0,"x_max":0,"o":"m 292 690 b 335 741 292 718 302 732 l 335 760 l 66 760 l 66 741 b 110 690 99 730 110 718 l 110 69 b 66 19 110 41 98 27 l 66 0 l 335 0 l 335 18 b 292 69 302 28 292 41 l 292 191 l 492 191 b 806 415 704 191 806 264 b 714 595 806 494 772 560 b 492 639 665 624 590 639 l 292 639 m 292 501 l 486 501 b 585 488 534 501 567 496 b 626 415 612 475 626 450 b 585 342 626 380 612 356 b 486 329 567 334 534 329 l 292 329 "},"Š":{"ha":1000,"x_min":0,"x_max":0,"o":"m 926 858 b 892 842 913 848 902 842 b 844 858 886 842 871 848 b 653 924 768 890 704 912 b 488 942 602 936 547 942 b 170 841 347 942 241 908 b 90 647 117 790 90 725 b 121 521 90 600 100 557 b 218 429 145 480 177 450 b 305 397 248 415 276 404 b 454 377 334 391 384 385 l 558 366 b 698 341 628 359 675 350 b 747 275 731 328 747 306 b 670 172 747 235 717 194 b 516 141 627 151 576 141 b 341 170 461 141 403 151 b 205 237 279 189 234 211 b 176 294 185 254 176 273 l 176 302 l 156 312 l 56 85 l 75 75 b 103 90 88 85 97 90 b 149 72 108 90 123 83 b 511 -16 268 13 389 -16 b 703 9 580 -16 644 -8 b 880 111 783 31 842 65 b 943 285 922 162 943 220 b 844 488 943 367 905 444 b 739 538 813 509 779 526 b 586 566 701 549 649 559 l 479 576 b 340 597 408 584 361 591 b 277 668 298 610 277 633 b 366 768 277 711 313 749 b 493 785 403 779 445 785 b 777 701 602 785 696 758 b 816 652 803 684 816 667 b 815 641 816 649 816 646 l 834 630 l 945 848 m 589 1179 b 608 1167 602 1178 608 1174 b 603 1155 608 1163 606 1159 l 540 1082 l 483 1153 b 472 1168 475 1162 472 1166 b 493 1179 472 1174 479 1177 l 493 1197 l 298 1197 l 298 1179 b 329 1165 311 1178 321 1174 l 431 1053 b 441 1033 438 1044 441 1038 b 421 1021 441 1026 435 1022 l 421 1002 l 635 1002 l 635 1021 b 613 1032 621 1021 613 1025 b 621 1049 613 1038 616 1044 l 711 1150 b 736 1175 725 1164 733 1173 b 758 1179 740 1177 747 1178 l 758 1197 l 589 1197 "},"š":{"ha":855,"x_min":0,"x_max":0,"o":""},"Ğ":{"ha":1192,"x_min":0,"x_max":0,"o":"m 681 1147 b 701 1135 694 1146 701 1142 b 695 1123 701 1131 699 1127 l 632 1050 l 575 1121 b 564 1137 568 1130 564 1135 b 585 1147 564 1142 571 1145 l 585 1165 l 391 1165 l 391 1147 b 421 1133 404 1146 414 1142 l 523 1021 b 534 1001 530 1013 534 1006 b 513 989 534 994 527 990 l 513 970 l 728 970 l 728 989 b 705 1000 713 989 705 993 b 713 1017 705 1006 708 1012 l 804 1118 b 829 1143 817 1133 825 1141 b 850 1147 832 1145 840 1146 l 850 1165 l 681 1165 m 907 207 b 778 159 871 186 827 170 b 627 141 728 147 677 141 b 373 224 522 141 437 169 b 268 460 303 284 268 363 b 376 704 268 562 304 642 b 616 785 439 758 519 785 b 768 763 664 785 714 778 b 889 710 821 749 861 731 b 913 686 902 701 910 692 b 920 654 917 680 919 669 l 939 644 l 1048 865 l 1029 876 b 996 860 1016 865 1005 860 b 930 878 983 860 960 866 b 770 927 870 901 817 918 b 621 942 723 937 673 942 b 220 817 454 942 321 901 b 62 463 115 730 62 612 b 240 90 62 304 121 180 b 606 -16 334 19 456 -16 b 1118 134 771 -16 942 34 l 1118 151 b 1074 201 1084 160 1074 173 l 1074 391 b 1118 440 1074 418 1085 431 l 1118 462 l 678 462 b 629 505 650 462 638 472 l 608 505 l 608 290 l 629 290 b 678 333 638 322 650 333 l 907 333 "},"ğ":{"ha":1000,"x_min":0,"x_max":0,"o":"m 561 976 b 581 964 574 975 581 971 b 575 952 581 960 578 956 l 512 880 l 455 950 b 444 966 448 959 444 964 b 465 976 444 971 451 975 l 465 994 l 271 994 l 271 976 b 301 962 283 975 294 971 l 403 850 b 414 830 410 842 414 835 b 393 818 414 823 407 819 l 393 800 l 608 800 l 608 818 b 585 829 593 818 585 822 b 593 846 585 836 588 841 l 684 947 b 709 972 697 962 705 970 b 730 976 712 974 720 975 l 730 994 l 561 994 m 751 177 b 527 127 690 144 616 127 b 310 196 434 127 361 151 b 235 375 260 241 235 300 b 317 565 235 454 262 518 b 519 632 370 610 437 632 b 718 583 590 632 656 616 b 768 531 751 565 768 548 l 768 527 l 785 519 l 875 710 l 859 719 b 831 708 848 711 839 708 b 766 727 825 708 803 714 b 513 776 671 760 587 776 b 132 614 345 776 218 722 b 50 376 77 545 50 465 b 95 193 50 311 64 250 b 197 73 121 145 155 105 b 502 -16 275 14 376 -16 b 940 105 648 -16 793 24 l 940 121 b 897 172 908 130 897 144 l 897 332 b 940 388 897 363 908 379 l 940 408 l 578 408 b 528 450 549 408 536 418 l 509 450 l 509 250 l 528 250 b 578 293 536 282 549 293 l 751 293 "},"Ş":{"ha":1000,"x_min":0,"x_max":0,"o":"m 450 -180 b 507 -154 466 -163 485 -154 b 559 -207 536 -154 559 -178 b 457 -270 559 -245 519 -270 b 381 -259 433 -270 408 -267 l 364 -294 b 513 -315 404 -309 454 -315 b 646 -278 571 -315 616 -303 b 690 -189 675 -254 690 -224 b 495 -69 690 -113 619 -69 b 479 -72 488 -69 482 -70 b 467 -92 477 -74 473 -80 l 429 -166 m 926 858 b 892 842 913 848 902 842 b 844 858 886 842 871 848 b 653 924 768 890 704 912 b 488 942 602 936 547 942 b 170 841 347 942 241 908 b 90 647 117 790 90 725 b 121 521 90 600 100 557 b 218 429 145 480 177 450 b 305 397 248 415 276 404 b 454 377 334 391 384 385 l 558 366 b 698 341 628 359 675 350 b 747 275 731 328 747 306 b 670 172 747 235 717 194 b 516 141 627 151 576 141 b 341 170 461 141 403 151 b 205 237 279 189 234 211 b 176 294 185 254 176 273 l 176 302 l 156 312 l 56 85 l 75 75 b 103 90 88 85 97 90 b 149 72 108 90 123 83 b 511 -16 268 13 389 -16 b 703 9 580 -16 644 -8 b 880 111 783 31 842 65 b 943 285 922 162 943 220 b 844 488 943 367 905 444 b 739 538 813 509 779 526 b 586 566 701 549 649 559 l 479 576 b 340 597 408 584 361 591 b 277 668 298 610 277 633 b 366 768 277 711 313 749 b 493 785 403 779 445 785 b 777 701 602 785 696 758 b 816 652 803 684 816 667 b 815 641 816 649 816 646 l 834 630 l 945 848 "},"ş":{"ha":855,"x_min":0,"x_max":0,"o":""},"İ":{"ha":455,"x_min":0,"x_max":0,"o":"m 127 71 b 83 22 127 43 116 31 l 83 0 l 372 0 l 372 22 b 329 71 340 30 329 43 l 329 855 b 372 904 329 882 340 896 l 372 926 l 83 926 l 83 904 b 127 855 116 895 127 882 l 127 71 m 227 1200 b 165 1175 203 1200 182 1192 b 140 1114 148 1158 140 1137 b 165 1051 140 1090 148 1069 b 227 1025 182 1034 203 1025 b 289 1051 251 1025 272 1034 b 315 1112 306 1068 315 1088 b 289 1175 315 1137 306 1158 b 227 1200 272 1192 252 1200 "},"Ə":{"ha":1189,"x_min":0,"x_max":0,"o":"m 562 155 b 374 211 496 154 433 172 b 273 355 314 250 281 298 l 905 355 l 905 494 l 61 494 b 64 432 62 474 62 453 b 77 316 66 396 69 351 b 188 111 93 237 142 145 b 592 -19 288 24 422 -19 b 949 89 739 -19 857 17 b 1067 235 998 128 1037 177 b 1120 456 1103 304 1120 378 b 1023 745 1120 564 1088 661 b 578 940 922 875 774 940 b 283 881 492 940 394 920 b 207 858 239 865 214 858 b 175 871 198 858 187 862 l 156 861 l 261 629 l 280 639 l 280 644 b 340 706 280 665 300 685 b 572 766 412 746 489 766 b 807 685 668 766 746 739 b 904 455 871 628 904 551 b 816 238 904 365 875 292 b 562 155 756 183 671 155 "},"ə":{"ha":1002,"x_min":0,"x_max":0,"o":"m 478 127 b 315 174 421 127 367 142 b 230 292 264 205 236 245 l 772 293 l 772 408 l 47 408 b 49 356 47 391 47 373 b 60 260 51 326 54 290 b 156 90 75 195 117 119 b 503 -16 241 19 357 -16 b 810 73 629 -16 732 14 b 911 193 852 105 886 145 b 958 376 942 250 958 311 b 874 614 958 465 930 545 b 492 776 788 722 661 776 b 238 727 418 776 333 760 b 172 708 201 714 178 708 b 145 719 165 708 155 711 l 129 710 l 219 519 l 235 527 l 235 531 b 286 583 235 548 252 565 b 486 632 348 616 415 632 b 688 565 568 632 636 610 b 772 375 744 518 772 454 b 696 196 772 300 747 241 b 478 127 644 151 572 127 "},"ә":{"ha":1002,"x_min":0,"x_max":0,"o":"m 478 127 b 696 196 572 127 644 151 b 772 375 747 241 772 300 b 688 565 772 454 744 518 b 486 632 636 610 568 632 b 286 583 415 632 348 616 b 235 531 252 565 235 548 l 235 527 l 219 519 l 129 710 l 145 719 b 172 708 155 711 165 708 b 238 727 178 708 201 714 b 492 776 333 760 418 776 b 874 614 661 776 788 722 b 958 376 930 545 958 465 b 911 193 958 311 942 250 b 810 73 886 145 852 105 b 503 -16 732 14 629 -16 b 156 90 357 -16 241 19 b 60 260 117 119 75 195 b 49 356 54 290 51 326 b 47 408 47 373 47 391 l 772 408 l 772 293 l 230 292 b 315 174 236 245 264 205 b 478 127 367 142 421 127 "}}}
